<?xml version="1.0" encoding="UTF-8"?>
<svg id="Capa_1" xmlns="http://www.w3.org/2000/svg" version="1.1" viewBox="0 0 40 40">
  <!-- Generator: Adobe Illustrator 29.1.0, SVG Export Plug-In . SVG Version: 2.1.0 Build 142)  -->
  <defs>
    <style>
      .st0 {
        fill: #004334;
      }
    </style>
  </defs>
  <g id="_x32_4_-_tree_x2C__Apple_x2C__apple_tree_x2C__nature_x2C__spring">
    <g>
      <path class="st0" d="M19.84,25.5c.1-.15.24-.15.39-.1.49.24.97.39,1.56.39,1.85,0,3.36-1.51,3.36-3.36,0-.63-.19-1.22-.49-1.75-.05-.1-.05-.19-.05-.29.05-.1.1-.15.19-.19.29-.1.54-.2.73-.39.1-.1.29-.1.39,0,.39.29.83.49,1.31.49,1.17,0,2.14-.97,2.14-2.14,0-.44-.15-.83-.34-1.17-.05-.1-.05-.19-.05-.24.05-.1.1-.15.19-.19.88-.29,1.41-1.12,1.41-2,0-.73-.34-1.36-.93-1.75-.15-.1-.19-.29-.1-.44.29-.44.44-.93.44-1.46,0-1.51-1.22-2.73-2.73-2.73-.39,0-.78.1-1.12.24-.1.05-.24.05-.29-.05-.1-.05-.15-.2-.1-.29.05-.2.05-.34.05-.54,0-2-1.66-3.65-3.65-3.65s-3.65,1.66-3.65,3.65v.29c0,.15-.05.24-.19.29-.15.05-.29,0-.34-.1-.54-.68-1.32-1.12-2.19-1.12-.44,0-.88.1-1.27.34-.1.05-.29.05-.39-.05-.54-.58-1.22-.88-2-.88-1.51,0-2.73,1.22-2.73,2.73,0,1.27.88,2.39,2.14,2.68.1.05.19.1.24.19.05.1,0,.24-.1.29-.29.29-.44.68-.44,1.07v.05h0c0,.15-.1.29-.24.29-1.27.24-2.19,1.36-2.19,2.68,0,1.51,1.22,2.73,2.73,2.73h.1c.1,0,.19.05.24.15.05.1.1.2.05.29-.05.15-.1.34-.1.49,0,.83.68,1.51,1.51,1.51.1,0,.19,0,.29-.05.1,0,.24.05.29.15.05.1.1.24,0,.34-.19.34-.29.73-.29,1.07,0,1.17.97,2.14,2.14,2.14h.34c.1,0,.19.05.24.15.39.68,1.07,1.07,1.85,1.07.34,0,.63-.1.93-.2v5.7h-6.53c-.15,0-.29.15-.29.29s.15.29.29.29h10.96c.15,0,.29-.15.29-.29s-.15-.29-.29-.29h-3.94v-6.04c.05-.1.1-.2.19-.29ZM19.6,21.51c1.36-.15,2.44-1.31,2.44-2.73v-3.02c0-.15.15-.29.29-.29s.29.15.29.29v.88c1.02-.15,1.85-1.02,1.85-2.09,0-.15.15-.29.29-.29s.29.15.29.29c0,1.41-1.07,2.58-2.43,2.73v1.56c0,1.75-1.36,3.17-3.07,3.31v-.63h.05ZM19.02,20.29c-1.95-.15-3.51-1.7-3.65-3.65-1.36-.15-2.44-1.32-2.44-2.73v-1.22c0-.15.15-.29.29-.29s.29.15.29.29v1.22c0,1.07.78,1.95,1.85,2.09v-1.51c0-.15.15-.29.29-.29s.29.15.29.29v1.85c0,1.75,1.36,3.17,3.07,3.31v.63Z"/>
      <path class="st0" d="M31.09,22.24c-.1-.1-.29-.1-.44,0l-1.22,1.22c-.1.1-.1.29,0,.44.05.05.15.1.19.1s.15-.05.19-.1l1.22-1.22c.15-.15.15-.29.05-.44Z"/>
      <path class="st0" d="M25.79,27.74l-1.22,1.22c-.1.1-.1.29,0,.44.05.05.15.1.19.1s.15-.05.19-.1l1.22-1.22c.1-.1.1-.29,0-.44-.1-.15-.24-.15-.39,0Z"/>
      <path class="st0" d="M11.18,24.67l-1.22,1.22c-.1.1-.1.29,0,.44.05.05.15.1.19.1s.15-.05.19-.1l1.22-1.22c.1-.1.1-.29,0-.44-.1-.1-.24-.1-.39,0Z"/>
      <path class="st0" d="M11.18,29.54l-1.22,1.22c-.1.1-.1.29,0,.44.05.05.15.1.19.1s.15-.05.19-.1l1.22-1.22c.1-.1.1-.29,0-.44-.1-.1-.24-.1-.39,0Z"/>
      <path class="st0" d="M13.22,28.62c.1,0,.15-.05.19-.1.1-.1.1-.29,0-.44l-.97-.97c-.1-.1-.29-.1-.44,0-.1.1-.1.29,0,.44l.97.97c.1.05.15.1.24.1Z"/>
      <path class="st0" d="M27.69,29.79c-.1-.1-.29-.1-.44,0-.1.1-.1.29,0,.44l.97.97s.15.1.19.1.15-.05.19-.1c.1-.1.1-.29,0-.44l-.93-.97Z"/>
      <path class="st0" d="M27.83,25.79c.1,0,.15-.05.19-.1.1-.1.1-.29,0-.44l-.97-.97c-.1-.1-.29-.1-.44,0-.1.1-.1.29,0,.44l.97.97c.1.1.15.1.24.1Z"/>
    </g>
  </g>
</svg>