<?xml version="1.0" encoding="UTF-8"?>
<svg id="Capa_1" xmlns="http://www.w3.org/2000/svg" version="1.1" viewBox="0 0 40 40">
  <!-- Generator: Adobe Illustrator 29.1.0, SVG Export Plug-In . SVG Version: 2.1.0 Build 142)  -->
  <defs>
    <style>
      .st0 {
        fill: #fff;
      }
    </style>
  </defs>
  <g id="_x32_4_-_tree_x2C__Apple_x2C__apple_tree_x2C__nature_x2C__spring">
    <g>
      <path class="st0" d="M19.4,28.18c.12-.17.29-.17.47-.12.58.29,1.16.47,1.86.47,2.21,0,4.02-1.81,4.02-4.02,0-.76-.23-1.46-.58-2.1-.06-.12-.06-.23-.06-.35.06-.12.12-.17.23-.23.35-.12.64-.23.87-.47.12-.12.35-.12.47,0,.47.35.99.58,1.57.58,1.4,0,2.56-1.16,2.56-2.56,0-.52-.17-.99-.41-1.4-.06-.12-.06-.23-.06-.29.06-.12.12-.17.23-.23,1.05-.35,1.69-1.34,1.69-2.39,0-.87-.41-1.63-1.11-2.1-.17-.12-.23-.35-.12-.52.35-.52.52-1.11.52-1.75,0-1.81-1.46-3.26-3.26-3.26-.47,0-.93.12-1.34.29-.12.06-.29.06-.35-.06-.12-.06-.17-.23-.12-.35.06-.23.06-.41.06-.64,0-2.39-1.98-4.37-4.37-4.37s-4.37,1.98-4.37,4.37v.35c0,.17-.06.29-.23.35-.17.06-.35,0-.41-.12-.64-.82-1.57-1.34-2.62-1.34-.52,0-1.05.12-1.51.41-.12.06-.35.06-.47-.06-.64-.7-1.46-1.05-2.39-1.05-1.81,0-3.26,1.46-3.26,3.26,0,1.51,1.05,2.85,2.56,3.2.12.06.23.12.29.23.06.12,0,.29-.12.35-.35.35-.52.82-.52,1.28v.06h0c0,.17-.12.35-.29.35-1.51.29-2.62,1.63-2.62,3.2,0,1.81,1.46,3.26,3.26,3.26h.12c.12,0,.23.06.29.17.06.12.12.23.06.35-.06.17-.12.41-.12.58,0,.99.82,1.81,1.81,1.81.12,0,.23,0,.35-.06.12,0,.29.06.35.17.06.12.12.29,0,.41-.23.41-.35.87-.35,1.28,0,1.4,1.16,2.56,2.56,2.56h.41c.12,0,.23.06.29.17.47.82,1.28,1.28,2.21,1.28.41,0,.76-.12,1.11-.23v6.81h-7.8c-.17,0-.35.17-.35.35s.17.35.35.35h13.1c.17,0,.35-.17.35-.35s-.17-.35-.35-.35h-4.72v-7.22c.06-.12.12-.23.23-.35ZM19.11,23.41c1.63-.17,2.91-1.57,2.91-3.26v-3.61c0-.17.17-.35.35-.35s.35.17.35.35v1.05c1.22-.17,2.21-1.22,2.21-2.5,0-.17.17-.35.35-.35s.35.17.35.35c0,1.69-1.28,3.09-2.91,3.26v1.86c0,2.1-1.63,3.78-3.67,3.96v-.76h.06ZM18.41,21.95c-2.33-.17-4.19-2.04-4.37-4.37-1.63-.17-2.91-1.57-2.91-3.26v-1.46c0-.17.17-.35.35-.35s.35.17.35.35v1.46c0,1.28.93,2.33,2.21,2.5v-1.81c0-.17.17-.35.35-.35s.35.17.35.35v2.21c0,2.1,1.63,3.79,3.67,3.96v.76Z"/>
      <path class="st0" d="M32.85,24.28c-.12-.12-.35-.12-.52,0l-1.46,1.46c-.12.12-.12.35,0,.52.06.06.17.12.23.12s.17-.06.23-.12l1.46-1.46c.17-.17.17-.35.06-.52Z"/>
      <path class="st0" d="M26.5,30.86l-1.46,1.46c-.12.12-.12.35,0,.52.06.06.17.12.23.12s.17-.06.23-.12l1.46-1.46c.12-.12.12-.35,0-.52-.12-.17-.29-.17-.47,0Z"/>
      <path class="st0" d="M9.03,27.19l-1.46,1.46c-.12.12-.12.35,0,.52.06.06.17.12.23.12s.17-.06.23-.12l1.46-1.46c.12-.12.12-.35,0-.52-.12-.12-.29-.12-.47,0Z"/>
      <path class="st0" d="M9.03,33.02l-1.46,1.46c-.12.12-.12.35,0,.52.06.06.17.12.23.12s.17-.06.23-.12l1.46-1.46c.12-.12.12-.35,0-.52-.12-.12-.29-.12-.47,0Z"/>
      <path class="st0" d="M11.48,31.91c.12,0,.17-.06.23-.12.12-.12.12-.35,0-.52l-1.16-1.16c-.12-.12-.35-.12-.52,0-.12.12-.12.35,0,.52l1.16,1.16c.12.06.17.12.29.12Z"/>
      <path class="st0" d="M28.77,33.31c-.12-.12-.35-.12-.52,0-.12.12-.12.35,0,.52l1.16,1.16c.06.06.17.12.23.12s.17-.06.23-.12c.12-.12.12-.35,0-.52l-1.11-1.16Z"/>
      <path class="st0" d="M28.95,28.53c.12,0,.17-.06.23-.12.12-.12.12-.35,0-.52l-1.16-1.16c-.12-.12-.35-.12-.52,0-.12.12-.12.35,0,.52l1.16,1.16c.12.12.17.12.29.12Z"/>
    </g>
  </g>
</svg>