<?xml version="1.0" encoding="UTF-8"?>
<svg id="Capa_1" xmlns="http://www.w3.org/2000/svg" version="1.1" viewBox="0 0 40 40">
  <!-- Generator: Adobe Illustrator 29.1.0, SVG Export Plug-In . SVG Version: 2.1.0 Build 142)  -->
  <defs>
    <style>
      .st0 {
        fill: #fff;
      }
    </style>
  </defs>
  <g id="_x31_99_x2C__Gardening_x2C__Growing_x2C__Plant">
    <g>
      <path class="st0" d="M6.63,24.61c0,.42.36.78.78.78s.72-.36.72-.78-.36-.78-.78-.78-.72.36-.72.78Z"/>
      <path class="st0" d="M25.03,32.48c-.42,0-.78.36-.78.78s.36.78.78.78.78-.36.78-.78-.36-.78-.78-.78Z"/>
      <path class="st0" d="M9.28,32.12c-.6,0-1.14.48-1.14,1.14s.48,1.14,1.14,1.14,1.14-.48,1.14-1.14-.54-1.14-1.14-1.14Z"/>
      <path class="st0" d="M35.13,32.66c-.06-.06-.06-.12-.06-.12-.72-2.4-3.55-3.37-5.59-2.1-.18.12-.48.06-.54-.18-.96-2.34-3.97-3.01-5.83-1.44-.18.18-.48.06-.6-.18-.36-.9-.96-1.68-1.68-2.28v-4.09l11.78-11.78c.12-.12.12-.36,0-.54-.12-.12-.36-.12-.54,0l-11.72,11.72-11.6-11.6c-.12-.12-.36-.12-.54,0-.12.12-.12.36,0,.54l11.78,11.78v3.61c-2.83-1.5-6.49-.12-7.45,3.13-.06.12-.12.18-.24.24-.12.06-.24.06-.3,0-.6-.36-1.26-.54-1.92-.54-1.68,0-3.19,1.14-3.61,2.76-.06.18-.18.24-.36.3-1.56.12-2.83,1.44-2.83,3.01,0,1.68,1.32,3.01,3.01,3.01h26.69c1.68,0,3.01-1.32,3.01-3.01,0-.9-.3-1.62-.84-2.22ZM9.28,35.13c-1.02,0-1.86-.84-1.86-1.86s.84-1.86,1.86-1.86,1.86.84,1.86,1.86-.84,1.86-1.86,1.86ZM15.29,35.49c-.6,0-1.14-.48-1.14-1.14s.48-1.14,1.14-1.14,1.14.48,1.14,1.14-.54,1.14-1.14,1.14ZM18.12,30.98c-.3,0-.54-.24-.54-.54s.24-.54.54-.54.54.24.54.54-.24.54-.54.54ZM25.03,34.77c-.84,0-1.5-.66-1.5-1.5s.66-1.5,1.5-1.5,1.5.66,1.5,1.5-.66,1.5-1.5,1.5ZM30.14,36.63c-.3,0-.54-.24-.54-.54s.24-.54.54-.54.54.24.54.54-.24.54-.54.54Z"/>
      <path class="st0" d="M15.29,33.99c-.18,0-.36.18-.36.36s.18.36.36.36.36-.18.36-.36-.18-.36-.36-.36Z"/>
      <path class="st0" d="M21.3,8.86c1.02,0,1.86-.84,1.86-1.86s-.84-1.86-1.86-1.86-1.86.84-1.86,1.86.84,1.86,1.86,1.86Z"/>
      <path class="st0" d="M31.46,23.11c-.6,0-1.14.48-1.14,1.14s.48,1.14,1.14,1.14,1.14-.48,1.14-1.14-.54-1.14-1.14-1.14Z"/>
      <path class="st0" d="M35.01,18.6c.3,0,.54.24.54.54s-.24.54-.54.54-.54-.24-.54-.54.24-.54.54-.54Z"/>
      <circle class="st0" cx="25.99" cy="23.29" r=".54"/>
      <path class="st0" d="M20.7,12.83c.3,0,.54.24.54.54s-.24.54-.54.54-.54-.24-.54-.54.24-.54.54-.54Z"/>
      <path class="st0" d="M15.11,4.71c.3,0,.54.24.54.54s-.24.54-.54.54-.54-.24-.54-.54.24-.54.54-.54Z"/>
      <path class="st0" d="M15.11,21.6c.3,0,.54.24.54.54s-.24.54-.54.54-.54-.24-.54-.54.24-.54.54-.54Z"/>
      <circle class="st0" cx="4.95" cy="18.06" r=".54"/>
      <path class="st0" d="M16.19,19.62l-1.5-1.5-3.55-.24c-.18,0-.36-.18-.36-.42s.18-.36.42-.36l2.65.18-1.2-1.2-2.28-.18c-.18,0-.36-.18-.36-.42,0-.18.18-.36.42-.36l1.38.12-1.2-1.2-.66-.06c-.18,0-.36-.18-.36-.42,0-.12.12-.24.24-.3-.24-.24-1.92-1.92-2.16-2.16-.42-.42-.42-1.14,0-1.62.42-.42,1.14-.42,1.62,0,.24.24,1.92,1.92,2.16,2.16.06-.12.18-.24.3-.24.18,0,.36.12.42.36l.06.66,1.2,1.2-.12-1.38c0-.18.12-.36.36-.42.18,0,.36.12.42.36l.18,2.28,1.2,1.2-.18-2.64c0-.18.12-.36.36-.42.18,0,.36.12.42.36l.24,3.55,1.5,1.5c.3-2.89-.72-5.77-2.83-7.81-2.52-2.46-6.01-3.37-9.2-2.58-.78,3.31.18,6.79,2.58,9.2,2.1,2.16,4.99,3.13,7.81,2.83Z"/>
      <path class="st0" d="M22.92,18.06l1.5-1.5.24-3.55c0-.18.18-.36.42-.36.18,0,.36.18.36.42l-.18,2.65,1.2-1.2.18-2.28c0-.18.18-.36.42-.36.18,0,.36.18.36.42l-.12,1.38,1.2-1.2.06-.66c0-.18.18-.36.42-.36.12,0,.24.12.3.24.24-.24,1.98-1.98,2.16-2.16.24-.24.48-.3.78-.3.6,0,1.14.48,1.14,1.14,0,.3-.12.6-.3.78-.06.06-2.1,2.1-2.16,2.16.12.06.24.18.24.3,0,.18-.12.36-.36.42l-.66.06-1.2,1.2,1.44-.12c.18,0,.36.12.42.36,0,.18-.12.36-.36.42l-2.28.18-1.2,1.2,2.65-.18c.18,0,.36.12.42.36,0,.18-.12.36-.36.42l-3.55.24-1.5,1.5c2.82.3,5.71-.66,7.81-2.82,2.4-2.4,3.37-5.89,2.58-9.2-3.19-.78-6.67.06-9.2,2.58-2.16,2.04-3.19,4.93-2.89,7.81Z"/>
    </g>
  </g>
</svg>