<?xml version="1.0" encoding="UTF-8"?>
<svg id="Capa_1" xmlns="http://www.w3.org/2000/svg" version="1.1" viewBox="0 0 40 40">
  <!-- Generator: Adobe Illustrator 29.1.0, SVG Export Plug-In . SVG Version: 2.1.0 Build 142)  -->
  <defs>
    <style>
      .st0 {
        fill: #fff;
      }
    </style>
  </defs>
  <ellipse class="st0" cx="27.77" cy="22.76" rx="6.25" ry="1.91"/>
  <path class="st0" d="M21.61,23.49l-.08-.31c0,.11.03.21.08.31Z"/>
  <path class="st0" d="M33.94,23.49c.05-.1.08-.21.08-.31l-.08.31Z"/>
  <path class="st0" d="M39.24,27.22c-.12-.43-.34-.52-1.76-1.12-.5-.21-1.06-.45-1.46-.64-.94-.46-2.06-.49-2.48-.49l.4-1.49c-.49.91-3.06,1.6-6.17,1.6s-5.68-.69-6.17-1.6l.76,2.82c0,.06,0,.11.03.17-.55-.23-.97-.45-1.32-.69-.09-.06-.15-.11-.19-.14-.17-.12-.3-.2-.56-.23-.03,0-.08,0-.18-.03-.19-.04-.41-.03-.69,0,.02-.2-.06-.41-.23-.51-.4-.06-.79.27-1.21.24-.55-.07-.81-.73-1.33-.93-.59-.41-1.27-.72-1.77-1.25,2.65-1.19,5.1-3.1,6.66-5.57.75-1.09,2.04-1.32,3.25-.96.61.69,1.25,1.32,2.03,1.81.21-1.03-.43-2.05-.43-3.1.64-2.68-1.41-5.97-4.33-5.87-.81,0-1.59.25-2.37.44-.73.01-1.5-.09-2.22.13-2.63.61-5.29,2.35-6.28,4.94-1.77,1.29-3.55,2.75-4.84,4.54.2.11.39.22.59.33-.53,1.36-1.9,2.07-2.73,3.19-1.05.91-2.33,1.57-3.25,2.66,1.15-.47,2.32-1.06,3.34-1.78-.43.66-.97,1.25-1.58,1.75.69-.16,1.38-.49,1.97-.89-.06.05-.11.1-.19.13,1-.25,1.9-.86,2.73-1.43-.13,1.02-.8,1.91-1.19,2.85-.58,1.34-1.54,2.46-2.16,3.79-.26.69-.82,1.24-1.05,1.92.11.23.75-.34.87-.5-.04.09-.09.17-.16.24.48-.25.89-.66,1.12-1.15l-.06.22c.34-.22.6-.54.87-.85.73-.85,1.59-1.67,1.95-2.76-.06,0-.09,0-.15,0,1.69-.74,2.79-2.46,4.46-3.18-.05.05-.1.11-.17.15.34.1.7-.22,1.02-.16.45.39,2.67,1.6,2.07,2.24-.44.23-.97-.11-1.42.04-.35.1-.56.49-.39.83,0-.37.56-.6.85-.47,0,.08.01.18.05.26-.83.38-1.42.75-1.46.78-.35.23-.46.7-.23,1.05.15.23.39.35.64.35.14,0,.28-.04.41-.12.02-.01,1.76-1.12,3.29-1.31.04,0,.07-.01.11-.02.13.07.26.13.4.2.19.14.55.37.74.2.05.14.18.24.23.38.1-.29-.08-.63-.28-.83.37.09.74.19,1.11.28-.1-.24-.34-.38-.56-.51.07-.01.13-.03.2-.04.64.06.9.74.4,1.28.45-.07.67-.69.44-1.06.38,0,.63.29.93.44-.07-.44-.54-.53-.88-.72,0-.04-.02-.08-.03-.12.28-.05.53-.09.61-.09.08.02.14.03.19.03.04.03.1.07.16.12.57.4,1.28.74,2.28,1.1,1.15.42,2.66.42,2.72.42.02,0,.05,0,.07,0l1.01-.09c.37.09,1,.07,2.19-.28.01.02.03.03.04.04.46.42.94.12,1.45-.19.14-.08.28-.17.42-.27,1.42-.24,2.45-.67,2.72-1.18l.4-.08c.22,0,1.15,0,1.86.34.44.21,1.02.46,1.53.67.4.17.92.39,1.11.49.19.17.45.24.71.17.4-.11.64-.53.53-.94ZM19.19,25.45c-.17.03-.36.06-.57.11.1-.29.42-.28.57-.11ZM16.85,25.73c.08,0,.22.04.38.09-.24.04-.49.08-.74.12.02-.12.14-.22.36-.21ZM13.38,23.48c.18-.05.41-.11.55-.24-.03.04-.04.08-.07.12.09-.03.16-.09.23-.15.75.72,1.71,1.2,2.49,1.89-.42.19-.84.46-1.17.1-.7-.54-1.35-1.16-2.03-1.72Z"/>
</svg>