<?xml version="1.0" encoding="UTF-8"?>
<svg id="Capa_1" xmlns="http://www.w3.org/2000/svg" version="1.1" viewBox="0 0 40 40">
  <!-- Generator: Adobe Illustrator 29.1.0, SVG Export Plug-In . SVG Version: 2.1.0 Build 142)  -->
  <defs>
    <style>
      .st0 {
        fill: #004334;
      }
    </style>
  </defs>
  <ellipse class="st0" cx="27.08" cy="22.18" rx="6.32" ry="1.94"/>
  <path class="st0" d="M20.85,22.91l-.09-.32c0,.11.03.21.09.32Z"/>
  <path class="st0" d="M33.32,22.91c.06-.1.09-.21.09-.32l-.09.32Z"/>
  <path class="st0" d="M38.68,26.69c-.12-.43-.34-.52-1.78-1.13-.5-.21-1.07-.45-1.48-.65-.95-.46-2.08-.5-2.51-.49l.41-1.5c-.49.92-3.1,1.62-6.24,1.62s-5.74-.7-6.24-1.62l.77,2.86c0,.06,0,.11.03.17-.56-.23-.98-.45-1.33-.69-.09-.06-.15-.11-.19-.14-.17-.12-.3-.21-.57-.23-.03,0-.08,0-.18-.03-.19-.04-.41-.03-.7,0,.02-.2-.06-.42-.24-.52-.41-.06-.8.27-1.22.25-.56-.07-.82-.74-1.34-.94-.6-.41-1.29-.73-1.79-1.26,2.69-1.2,5.16-3.13,6.74-5.63.75-1.1,2.06-1.33,3.29-.97.61.7,1.27,1.33,2.05,1.83.22-1.04-.43-2.07-.44-3.14.65-2.71-1.42-6.03-4.38-5.94-.82,0-1.61.25-2.4.45-.73.01-1.52-.09-2.25.13-2.66.62-5.36,2.37-6.35,5-1.79,1.31-3.59,2.79-4.89,4.59.2.11.4.22.59.34-.54,1.38-1.92,2.09-2.76,3.23-1.06.92-2.36,1.59-3.28,2.69,1.16-.48,2.35-1.08,3.38-1.8-.44.67-.98,1.27-1.6,1.77.7-.17,1.39-.5,1.99-.9-.06.05-.11.1-.19.13,1.01-.25,1.92-.87,2.76-1.45-.14,1.04-.8,1.93-1.2,2.88-.59,1.36-1.56,2.49-2.19,3.83-.26.69-.83,1.26-1.07,1.94.11.24.76-.35.88-.51-.04.09-.09.17-.16.25.48-.26.9-.67,1.13-1.16l-.06.23c.35-.22.61-.55.88-.86.74-.86,1.6-1.69,1.98-2.79-.06,0-.09,0-.15,0,1.7-.75,2.83-2.49,4.51-3.22-.05.05-.1.12-.17.15.34.11.71-.22,1.03-.16.46.4,2.7,1.62,2.09,2.27-.45.24-.98-.11-1.44.04-.35.1-.57.5-.39.84,0-.37.57-.6.86-.47,0,.08.01.18.05.26-.84.38-1.44.76-1.48.79-.36.23-.46.7-.23,1.06.15.23.39.35.65.35.14,0,.29-.04.41-.12.02-.01,1.78-1.13,3.32-1.33.04,0,.08-.01.11-.02.13.07.27.13.4.2.19.14.55.37.75.2.05.14.18.25.24.39.1-.29-.08-.63-.28-.84.37.1.75.19,1.12.29-.11-.24-.34-.39-.56-.51.07-.01.13-.03.2-.04.65.06.91.75.41,1.3.46-.07.68-.7.45-1.07.38,0,.64.29.94.45-.08-.44-.55-.54-.89-.73,0-.04-.02-.08-.03-.12.29-.05.53-.1.62-.09.08.02.14.03.19.03.04.03.1.07.17.12.58.4,1.29.75,2.3,1.11,1.16.42,2.69.43,2.75.43.02,0,.05,0,.07,0l1.02-.09c.37.09,1.01.07,2.21-.29.01.02.03.03.04.04.46.43.95.13,1.47-.19.14-.09.29-.18.43-.28,1.44-.24,2.47-.68,2.75-1.2l.4-.08c.23,0,1.17,0,1.88.34.44.21,1.03.46,1.55.68.4.17.94.4,1.12.49.19.17.46.24.72.17.41-.11.65-.54.53-.95ZM18.4,24.89c-.17.03-.36.07-.58.11.1-.29.42-.28.58-.11ZM16.04,25.18c.08,0,.22.04.38.1-.24.04-.49.08-.74.12.02-.12.14-.22.36-.21ZM12.52,22.9c.19-.05.41-.11.55-.24-.03.04-.04.08-.07.12.09-.03.17-.09.23-.16.76.73,1.73,1.21,2.52,1.92-.42.19-.85.47-1.18.1-.71-.55-1.36-1.17-2.05-1.74Z"/>
</svg>