<?xml version="1.0" encoding="UTF-8"?>
<svg id="Capa_1" xmlns="http://www.w3.org/2000/svg" version="1.1" viewBox="0 0 40 40">
  <!-- Generator: Adobe Illustrator 29.1.0, SVG Export Plug-In . SVG Version: 2.1.0 Build 142)  -->
  <defs>
    <style>
      .st0 {
        fill: #004334;
      }
    </style>
  </defs>
  <g id="_x31_97_x2C__Flowers_x2C__Garden_x2C__Grass_x2C__Garden">
    <g>
      <path class="st0" d="M13.74,21.55c.48,1.81,1.24,5.38.81,9.18.05.29.1.62.1.95h2.81c-.38-3.52-1.47-7.47-3.71-10.13Z"/>
      <path class="st0" d="M8.37,16.6c.48,1.71,1.33,5.28,1.43,9.32.62,1.33,1.24,3.19,1.52,5.66h2.76c-.71-6.04-2.43-9.99-3.76-12.27-.76-1.24-1.47-2.14-1.95-2.71Z"/>
      <path class="st0" d="M8.61,31.64h2.14c-.48-3.85-1.71-6.09-2.57-7.23.38,1.57.86,4.33.43,7.23Z"/>
      <path class="st0" d="M24.12,9.13c-.57.62-1.43,1.57-2.38,3-3.85,5.8-5.14,12.7-5.23,12.99.76,1.9,1.28,4.09,1.57,6.52h1.67c.43-3.57,1.28-6.33,2.14-8.28.14-6.42,1.57-11.94,2.24-14.23Z"/>
      <path class="st0" d="M30.25,10.23c.43,0,.76-.33.76-.76s-.33-.76-.76-.76-.76.33-.76.76c.05.43.38.76.76.76Z"/>
      <path class="st0" d="M31.35,22.93c-1.86,2.33-2.81,5.71-3.14,8.71h2.62c-.62-3.52.05-6.95.52-8.71Z"/>
      <path class="st0" d="M31.16,28.88c0,.9.1,1.81.24,2.76h.95c-.38-2.33,0-4.57.33-5.95-.48.67-1.05,1.71-1.52,3.19Z"/>
      <path class="st0" d="M24.83,19.65c-2.66,3.09-4,7.9-4.47,11.99h3.38c.05-.38.1-.76.14-1.14-.52-4.57.43-8.85.95-10.85Z"/>
      <path class="st0" d="M31.11,13.94c-4.09,4.42-6.09,11.7-6.8,17.7h3.28c.33-2.95,1.09-5.14,1.81-6.61.1-4.95,1.14-9.13,1.71-11.09Z"/>
      <path class="st0" d="M12.89,14.41c.81,0,1.47-.67,1.47-1.47s-.67-1.47-1.47-1.47-1.47.67-1.47,1.47.62,1.47,1.47,1.47Z"/>
      <path class="st0" d="M32.63,17.08c.24,0,.43.19.43.43s-.19.43-.43.43-.43-.19-.43-.43.19-.43.43-.43Z"/>
      <path class="st0" d="M26.68,12.03c.24,0,.43.19.43.43s-.19.43-.43.43-.43-.19-.43-.43.19-.43.43-.43Z"/>
      <path class="st0" d="M19.88,7.28c.24,0,.43.19.43.43s-.19.43-.43.43-.43-.19-.43-.43.19-.43.43-.43Z"/>
      <path class="st0" d="M7.37,20.65c.24,0,.43.19.43.43s-.19.43-.43.43-.43-.19-.43-.43.19-.43.43-.43Z"/>
      <path class="st0" d="M9.75,9.66c.24,0,.43.19.43.43s-.19.43-.43.43-.43-.19-.43-.43.19-.43.43-.43Z"/>
      <path class="st0" d="M16.6,14.98c.24,0,.43.19.43.43s-.19.43-.43.43-.43-.19-.43-.43.19-.43.43-.43Z"/>
    </g>
  </g>
</svg>