<?xml version="1.0" encoding="UTF-8"?>
<svg id="Capa_1" xmlns="http://www.w3.org/2000/svg" version="1.1" viewBox="0 0 40 40">
  <!-- Generator: Adobe Illustrator 29.1.0, SVG Export Plug-In . SVG Version: 2.1.0 Build 142)  -->
  <defs>
    <style>
      .st0 {
        fill: #fff;
      }
    </style>
  </defs>
  <g id="_x31_97_x2C__Flowers_x2C__Garden_x2C__Grass_x2C__Garden">
    <g>
      <path class="st0" d="M11.57,25.89c.6,2.3,1.57,6.83,1.03,11.67.06.36.12.79.12,1.21h3.57c-.48-4.47-1.87-9.49-4.71-12.88Z"/>
      <path class="st0" d="M4.74,19.61c.6,2.18,1.69,6.71,1.81,11.85.79,1.69,1.57,4.05,1.93,7.19h3.51c-.91-7.68-3.08-12.69-4.78-15.6-.97-1.57-1.87-2.72-2.48-3.45Z"/>
      <path class="st0" d="M5.04,38.71h2.72c-.6-4.9-2.18-7.74-3.26-9.19.48,1.99,1.09,5.5.54,9.19Z"/>
      <path class="st0" d="M24.74,10.12c-.73.79-1.81,1.99-3.02,3.81-4.9,7.37-6.53,16.14-6.65,16.5.97,2.42,1.63,5.2,1.99,8.28h2.12c.54-4.53,1.63-8.04,2.72-10.52.18-8.16,1.99-15.17,2.84-18.07Z"/>
      <path class="st0" d="M32.54,11.51c.54,0,.97-.42.97-.97s-.42-.97-.97-.97-.97.42-.97.97c.06.54.48.97.97.97Z"/>
      <path class="st0" d="M33.93,27.65c-2.36,2.96-3.57,7.25-3.99,11.06h3.32c-.79-4.47.06-8.83.66-11.06Z"/>
      <path class="st0" d="M33.69,35.2c0,1.15.12,2.3.3,3.51h1.21c-.48-2.96,0-5.8.42-7.56-.6.85-1.33,2.18-1.93,4.05Z"/>
      <path class="st0" d="M25.65,23.48c-3.39,3.93-5.08,10.03-5.68,15.23h4.29c.06-.48.12-.97.18-1.45-.66-5.8.54-11.24,1.21-13.78Z"/>
      <path class="st0" d="M33.63,16.22c-5.2,5.62-7.74,14.87-8.64,22.49h4.17c.42-3.75,1.39-6.53,2.3-8.4.12-6.29,1.45-11.61,2.18-14.08Z"/>
      <path class="st0" d="M10.48,16.83c1.03,0,1.87-.85,1.87-1.87s-.85-1.87-1.87-1.87-1.87.85-1.87,1.87.79,1.87,1.87,1.87Z"/>
      <path class="st0" d="M35.56,20.21c.3,0,.54.24.54.54s-.24.54-.54.54-.54-.24-.54-.54.24-.54.54-.54Z"/>
      <path class="st0" d="M28.01,13.81c.3,0,.54.24.54.54s-.24.54-.54.54-.54-.24-.54-.54.24-.54.54-.54Z"/>
      <path class="st0" d="M19.36,7.76c.3,0,.54.24.54.54s-.24.54-.54.54-.54-.24-.54-.54.24-.54.54-.54Z"/>
      <path class="st0" d="M3.47,24.75c.3,0,.54.24.54.54s-.24.54-.54.54-.54-.24-.54-.54.24-.54.54-.54Z"/>
      <path class="st0" d="M6.49,10.78c.3,0,.54.24.54.54s-.24.54-.54.54-.54-.24-.54-.54.24-.54.54-.54Z"/>
      <path class="st0" d="M15.19,17.55c.3,0,.54.24.54.54s-.24.54-.54.54-.54-.24-.54-.54.24-.54.54-.54Z"/>
    </g>
  </g>
</svg>