<?xml version="1.0" encoding="UTF-8"?>
<svg id="Capa_1" xmlns="http://www.w3.org/2000/svg" version="1.1" viewBox="0 0 40 40">
  <!-- Generator: Adobe Illustrator 29.1.0, SVG Export Plug-In . SVG Version: 2.1.0 Build 142)  -->
  <defs>
    <style>
      .st0 {
        fill: #004334;
      }
    </style>
  </defs>
  <path class="st0" d="M31.6,9.03c-4.23.16-9.58,8.79-10.39,10.15-.2-.35-.45-.64-.45-.64,0,0-.09-.28-.26-.49.26-.47,1.04-1.9.95-1.94-.1-.04-.81,1.45-1.01,1.87-.1-.1-.22-.18-.37-.18-.15,0-.28.09-.37.2-.25-.39-1.21-1.89-1.34-1.89-.15,0,1.27,1.98,1.27,1.98-.14.21-.19.45-.19.45,0,0-.31.33-.55.64-.81-1.35-6.17-9.99-10.4-10.15-4.59-.18-3.88,1.24-3.44,2.56.44,1.32,1.59,1.59,1.5,2.47-.09.88-.18,6.18,1.15,6.71,1.32.53,5.47.09,5.47.09,0,0-6.26,2.56-6,3.88.26,1.32,1.24,1.96,1.32,3.1.09,1.14,1.32,3.08,2.91,3.08s3.44-.79,3.97-.44c.4.26,2.43-4.27,3.42-6.57.21,1.12.98,2.15.99,2.29,0,.17.73.17,1.3-.86.16-.29.24-.77.26-1.3,1.01,2.33,2.97,6.7,3.36,6.44.53-.35,2.38.44,3.97.44s2.82-1.94,2.91-3.08c.09-1.14,1.06-1.77,1.32-3.1.26-1.32-6-3.88-6-3.88,0,0,4.15.44,5.47-.09,1.32-.53,1.24-5.82,1.15-6.71-.09-.88,1.06-1.15,1.5-2.47.44-1.32,1.15-2.74-3.44-2.56Z"/>
</svg>