<?xml version="1.0" encoding="UTF-8"?>
<svg id="Capa_1" xmlns="http://www.w3.org/2000/svg" version="1.1" viewBox="0 0 40 40">
  <!-- Generator: Adobe Illustrator 29.1.0, SVG Export Plug-In . SVG Version: 2.1.0 Build 142)  -->
  <defs>
    <style>
      .st0 {
        fill: #fff;
      }
    </style>
  </defs>
  <path class="st0" d="M33.26,8.63c-4.81.18-10.89,10-11.82,11.53-.23-.4-.52-.72-.52-.72,0,0-.1-.31-.29-.56.3-.54,1.19-2.16,1.08-2.21-.12-.05-.92,1.64-1.15,2.13-.11-.12-.25-.2-.42-.2-.18,0-.31.1-.42.22-.28-.44-1.37-2.15-1.52-2.15-.17,0,1.45,2.25,1.45,2.25-.15.24-.22.52-.22.52,0,0-.35.38-.62.73-.92-1.53-7.01-11.35-11.82-11.54-5.22-.2-4.41,1.4-3.91,2.91.5,1.5,1.81,1.81,1.71,2.81-.1,1-.2,7.02,1.3,7.62,1.5.6,6.22.1,6.22.1,0,0-7.12,2.91-6.82,4.41.3,1.5,1.4,2.23,1.5,3.52.1,1.29,1.5,3.5,3.31,3.5s3.91-.9,4.51-.5c.45.3,2.76-4.85,3.89-7.46.24,1.27,1.12,2.44,1.13,2.6.01.19.83.19,1.48-.97.18-.33.27-.87.3-1.48,1.15,2.65,3.38,7.61,3.82,7.32.6-.4,2.71.5,4.51.5s3.21-2.21,3.31-3.5c.1-1.29,1.2-2.02,1.5-3.52.3-1.5-6.82-4.41-6.82-4.41,0,0,4.71.5,6.22-.1,1.5-.6,1.4-6.62,1.3-7.62-.1-1,1.2-1.3,1.71-2.81.5-1.5,1.3-3.11-3.91-2.91Z"/>
</svg>