<svg version="1.2" xmlns="http://www.w3.org/2000/svg" viewBox="0 0 292 292" width="292" height="292">
	<title>1-svg</title>
	<style>
		.s0 { fill: #FFFFFF } 
	</style>
	<g>
		<g id="layer">
			<path fill-rule="evenodd" class="s0" d="m231.4 148.7c5.2 5.3 7.8 11.6 7.8 19 0 7.4-2.5 13.6-7.8 18.9-5.3 5.3-11.6 7.9-18.9 7.9q-10.9 0-18.6-7.9c-5.3-5.1-7.8-11.5-7.8-18.9 0-7.4 2.5-13.7 7.8-19 5.1-5.3 11.4-7.9 18.6-7.9 7.4 0 13.6 2.6 18.9 7.9zm-4.7 18.9c-0.2-4-1.4-7.4-4.1-10-2.7-2.8-6.1-4.2-10-4-3.9-0.2-7.2 1.2-9.8 4-2.7 2.6-4.2 6.1-4.2 10 0 3.9 1.5 7.2 4.2 10 2.8 2.8 5.9 4.1 9.8 4.1 3.9 0 7.3-1.3 9.9-4.1 2.6-2.8 4-6.2 4.2-10zm-196.1-21.2c-4 4-6 8.8-5.8 14.5-0.2 5.7 1.8 10.4 5.8 14.4 3.8 3.8 10.2 5.9 14.3 5.9 4 0 7.5-1 10.9-3.1 3.1-2.2 5.6-5 7.3-8.5h13.3c-1.9 7.1-5.8 12.8-11.5 17.5-5.9 4.6-10.8 6.8-20 6.8-9.2 0-16.8-3.2-23.2-9.6-6.6-6.5-9.7-14.4-9.7-23.6 0-9.1 3.1-16.9 9.7-23.4 6.4-6.6 15.7-9.8 23-9.8 7.4 0 14.2 2.3 20.1 7 5.8 4.5 9.5 10.4 11.5 17.5h-13.4c-1.6-3.4-4.1-6.4-7.2-8.5-3.5-2.2-7.1-3.3-11-3.3-5.5 0-10.3 2.1-14.1 6.2zm116.5 10.3v37.4h-12.7v-5.2c-3.9 3.5-9.5 5.1-16.4 5.2-4.4-0.1-7.8-1.3-10.5-3.6-2.9-2.8-4.4-6.4-4.3-11-0.1-6.5 2.3-11.1 7-13.8 2.7-1.7 6.4-2.8 10.9-3.4l9.9-1.5c1.9-0.8 2.9-2.2 2.9-3.9-0.1-2-0.7-3.6-2.2-4.3-1.6-0.8-3.7-1.4-6.3-1.2-3.2-0.2-5.4 0.8-6.8 2.5-0.8 0.9-1.5 2.4-1.8 4.7h-12.8c0.3-4.6 1.4-8.3 3.7-11.1 3.4-4.6 9.4-7 18-6.8 5.6-0.2 10.4 0.9 14.9 3.3 4.1 2.2 6.3 6.5 6.5 12.7zm-13.6 11.3l-2.5 1.4-6.4 1.7c-2.6 0.2-4.7 0.9-6 1.6-2 1.4-3 3.5-3 5.9 0 2.3 0.5 3.9 1.8 5 1.2 1 1.6 1.5 4.6 1.5 2.9 0 5.4-1 7.9-2.6 2.4-1.7 3.6-4.8 3.6-9.2zm-37.9-40.5v66.5h-12.8v-66.5zm89.4 13.3l0.1 13-3.9-0.2c-2.3 0-4.7 0.7-6.9 2.2-1.9 1.2-3.6 2.9-4.4 4.9-1.2 1.9-1.7 4.9-1.7 9v24.5h-12.6v-51.1l12.1 0.1v6.5c2.5-3.4 5.5-5.8 9-7.2l4.9-1.4zm87.1-28.9l-30.7 30.8-8-8 30.6-30.9zm-52.3-14.5v33.1h-11.4v-33.1zm61 58.1v11.4h-33.8v-11.4z"/>
		</g>
	</g>
</svg>