<svg width="93" height="95" viewBox="0 0 93 95" fill="none" xmlns="http://www.w3.org/2000/svg">
<g clip-path="url(#clip0_1_85)">
<path d="M40.02 0.129981C42.1 4.46998 43.25 9.13998 43.99 13.9C45.66 24.68 45.65 38.21 44.32 49.05C44.25 49.58 44 52.03 43.61 52.03C40.95 48.49 38.54 44.74 36.25 40.94C31.71 33.4 23.61 19.72 25.43 10.86C26.86 3.86998 33.15 -0.0300193 40.02 0.129981Z" fill="white"/>
<path d="M53.3099 0.129985C55.4799 -0.620015 61.5599 2.06999 63.3399 3.62999C70.9799 10.3 67.1399 20.54 63.5799 28.29C59.7799 36.56 54.5199 44.61 49.2899 52.02C48.8499 51.74 48.9199 51.46 48.8599 51.04C47.3499 40.2 47.2199 26.71 48.6199 15.88C48.9299 13.52 51.2799 0.839985 53.3099 0.129985Z" fill="white"/>
<path d="M52.84 54.29C58.43 41.22 66.2 29.12 74.46 17.59L78.8 12.29C84.24 17.76 88.82 25.47 84.57 33.09C81.23 39.08 68.82 46.14 62.68 49.51C61.6 50.1 53.24 54.66 52.84 54.28V54.29Z" fill="white"/>
<path d="M40.06 54.29C39.65 54.37 39.3599 54.2 39.0099 54.07C35.8999 52.94 31.24 50.09 28.24 48.38C22.62 45.18 11.37 38.65 8.32995 33.09C4.14995 25.43 8.76995 17.87 14.12 12.29C14.47 12.21 15.48 13.65 15.77 14.01C23.25 23.25 35.86 42.27 39.84 53.23C39.97 53.59 40.15 53.87 40.06 54.28V54.29Z" fill="white"/>
<path d="M15.7999 57.98C5.18994 57 -2.96006 46.13 1.03994 35.85C11.1299 41.53 21.4199 46.91 31.2499 53.04C32.1099 53.58 37.4599 56.81 37.6699 57.13C37.9699 57.59 37.6799 57.69 37.3799 57.99H15.7999V57.98Z" fill="white"/>
<path d="M55.11 57.14C66.56 50.1 78.11 43.1 90.01 36.83C90.45 36.6 91.83 35.69 92.14 36.13C93.83 38.55 92.54 45.69 91.29 48.33C87.81 55.69 81.28 57.66 73.71 58C67.66 58.27 61.42 57.89 55.39 57.85L55.11 57.14Z" fill="white"/>
<path d="M84.34 60.82C82.28 65.42 77.35 70.04 71.98 69.63C68.58 69.37 59.62 63.6 56.72 61.34C56.32 61.03 55.72 60.68 55.67 60.11L84.34 60.82Z" fill="white"/>
<path d="M37.2201 59.97C37.3001 60.57 36.7401 60.89 36.3501 61.22C33.5401 63.58 24.0901 69.43 20.6301 69.63C15.4001 69.92 11.1401 65.28 8.56006 61.24L37.2201 59.97Z" fill="white"/>
<path d="M55.39 88.92L59.06 78.55L61.59 78.47L65.18 88.93C66.26 87.19 67.55 79.75 68.58 78.71C69.07 78.21 71.82 78.3 71.85 78.86L66.43 94.01H63.66L60.51 84.11C60.11 84.14 60.06 84.53 59.93 84.81C59.37 86.04 57.19 93.74 56.78 94.01L54.15 94.07L48.87 78.44L52.14 78.72L55.4 88.94L55.39 88.92Z" fill="white"/>
<path d="M4.02001 84.66H11.12V78.42C12.13 78.55 13.49 78.04 14.24 78.85V94.03H11.12V87.79H4.02001V94.03H0.890015V78.42C1.90001 78.55 3.26002 78.04 4.01002 78.85V84.67L4.02001 84.66Z" fill="white"/>
<path d="M85.76 78.42V81.54H77.53V84.66H83.21V87.5H77.53V91.19H86.04V94.03H74.41V78.42H85.76Z" fill="white"/>
<path d="M21.61 78.42V87.64C21.61 88.77 22.49 90.57 23.67 90.97C30.98 93.4 28.14 82.7 28.74 78.88C29.02 78.03 31.09 78.54 31.82 78.41V89.34C31.82 90.49 30.06 92.75 29.02 93.35C24.66 95.89 19.12 93.73 18.51 88.45C18.31 86.74 18.19 80.66 18.48 79.11C18.54 78.79 18.58 78.54 18.95 78.44L21.61 78.4V78.42Z" fill="white"/>
<path d="M49.71 94.03L46.58 93.89L45.31 91.19L38.25 90.95L36.9 94L33.53 94.03L40.33 78.55C41.26 78.35 42.72 78.1 43.31 79L49.71 94.03ZM44.04 88.07C43.8 87.62 41.85 82.41 41.49 82.68L39.5 88.07H44.04Z" fill="white"/>
<path d="M92.85 78.7H89.73V94.03H92.85V78.7Z" fill="white"/>
</g>
<defs>
<clipPath id="clip0_1_85">
<rect width="92.95" height="94.43" fill="white"/>
</clipPath>
</defs>
</svg>
