<svg width="96" height="47" viewBox="0 0 96 47" fill="none" xmlns="http://www.w3.org/2000/svg">
<g clip-path="url(#clip0_1_101)">
<path d="M71.22 0.329993C78.05 0.809993 86.36 -0.540007 93.01 0.259993C96.43 0.669993 97.07 4.90999 94.01 6.37999C89.32 7.02999 83.76 5.90999 79.17 6.57999C77.57 6.80999 76.45 7.46999 76.03 9.10999C75.61 10.75 75.62 17.18 76.34 18.63C76.78 19.5 77.85 20.02 78.81 20.14C82.41 20.57 87.57 19.51 90.96 20.2C94.36 20.89 94.44 25.77 91.19 26.54C87.94 27.31 82.42 26.22 78.82 26.66C77.68 26.8 76.75 27.34 76.27 28.37C75.57 29.88 75.58 37.03 76.36 38.5C76.91 39.54 78 40.11 79.14 40.26C83.72 40.88 89.34 39.74 94.03 40.41C97.09 41.87 96.43 46.23 93.03 46.54C86.18 47.17 78.39 46.04 71.44 46.54C69.82 46.38 68.71 44.88 68.74 43.28V3.24999C68.83 1.78999 69.8 0.599993 71.23 0.339993L71.22 0.329993Z" fill="white"/>
<path d="M3.94995 0.33001L29.7099 0.26001C32.2999 0.46001 33.5499 3.06001 32.1699 5.28001C26.2199 15.59 18.5 25.44 12.7 35.76C11.42 38.05 11.09 39.43 14.12 40.25L30.7099 40.4C33.7599 41.94 33.2399 46.21 29.7099 46.53C21.1599 47.32 11.41 45.91 2.72995 46.53C0.629951 46.28 -0.580049 44 0.259951 42.06L20.49 10.35C21.72 8.56001 20.65 6.82001 18.61 6.54001C14.33 5.94001 8.84995 6.93001 4.42995 6.53001C0.789951 6.19001 0.609951 1.35001 3.94995 0.33001Z" fill="white"/>
<path d="M53.31 45.58C51.25 47.64 47.7 46.35 47.18 43.53L46.97 8.82001C45.29 4.60001 39.12 7.77001 36.51 5.94001C34.37 4.44001 34.93 1.44001 37.2 0.39001L63.48 0.26001C66.99 0.67001 67.16 6.07001 63.77 6.52001C60.81 6.92001 55.25 5.16001 54.38 9.33001L54.26 43.56C54.21 44.21 53.74 45.15 53.3 45.58H53.31Z" fill="white"/>
</g>
<defs>
<clipPath id="clip0_1_101">
<rect width="95.98" height="46.79" fill="white"/>
</clipPath>
</defs>
</svg>
