<svg width="116" height="104" viewBox="0 0 116 104" fill="none" xmlns="http://www.w3.org/2000/svg">
<g clip-path="url(#clip0_1_120)">
<path d="M53.3 0.199983C95.2 -3.62002 113.61 49.36 79.79 71.82C51.64 90.51 14.92 67.44 19.05 34.07C21.19 16.84 35.79 1.78998 53.3 0.199983ZM46.83 10.33L31.91 58.6C32.24 59.05 33.81 59 34.21 58.6C34.53 58.28 36.18 52.22 36.61 51.06C37.86 47.67 40.04 42.53 43.52 40.94C51.29 37.39 55.12 47.42 58.05 52.62C60.79 47.49 64.08 38.38 71.48 40.62C78.03 42.6 79.54 52.77 81.63 58.29C82.13 59.11 83.25 58.98 84.04 58.74L84.26 57.95L69.69 10.62L69.27 10.33L58.06 47.8L46.85 10.33H46.83Z" fill="white"/>
<path d="M21.86 103.43H19.02V93.07C19.02 91.93 16.95 90.37 15.75 90.37C14.55 90.37 12.49 91.62 12.49 92.79V103.43H9.37V92.5C9.37 91.55 7.09 90.35 6.13 90.39C4.8 90.44 2.84 92.03 2.84 93.35V103.43H0V92.79C0 92.6 0.55 91.25 0.69 90.93C2.57 86.94 8.13 86.53 10.92 89.8C13.19 87.05 17.81 86.93 20.3 89.51C20.68 89.9 21.85 91.8 21.85 92.22V103.43H21.86Z" fill="white"/>
<path d="M115.8 103.43H113.24L113.1 102.01C109.91 103.75 106.47 104.38 103.33 102.14C95.0399 96.22 103.24 83.47 112.2 88.73C113.37 89.42 115.8 92.35 115.8 93.65V103.44V103.43ZM106.93 90.72C100.96 91.74 102.2 101.33 108.54 100.56C114.88 99.79 114.01 89.51 106.93 90.72Z" fill="white"/>
<path d="M30.8699 87.61C42.05 86.02 43.2899 103.47 32.1699 103.6C22.0599 103.72 21.3 88.97 30.8699 87.61ZM30.8599 90.72C28.4099 91.14 26.6399 94.01 27.0299 96.4C27.5699 99.78 31.6999 101.76 34.6099 99.86C39.2199 96.86 36.7799 89.71 30.8599 90.72Z" fill="white"/>
<path d="M83.95 87.61C95.06 86.36 95.96 103.47 84.96 103.6C74.87 103.72 74.12 88.72 83.95 87.61ZM83.65 90.72C77.84 91.92 79.12 101.64 85.79 100.52C92.1 99.46 90.73 89.25 83.65 90.72Z" fill="white"/>
<path d="M52.3299 89.9C60.4499 81.77 71.9399 95.33 62.8699 102C54.8399 107.91 45.5299 96.7 52.3299 89.9ZM56.9799 90.72C51.8199 91.6 51.8499 99.7 56.9799 100.52C64.8899 101.79 65.0299 89.34 56.9799 90.72Z" fill="white"/>
<path d="M45.13 83.56V87.53L48.82 87.69V90.65H45.13V98.46C45.13 99.43 47.73 101.03 48.82 100.59L48.68 103.71C46.38 103.3 44.39 102.92 43.09 100.78C42.75 100.22 42.01 98.43 42.01 97.89V83.56H45.13Z" fill="white"/>
<path d="M68.12 93.07C68.62 89.33 72.22 87.28 75.78 87.53V90.65C74.52 90.08 71.24 91.41 71.24 92.78V103.42H68.12C68.43 100.19 67.7 96.2 68.12 93.06V93.07Z" fill="white"/>
<path d="M97.92 83.56H95.08V103.43H97.92V83.56Z" fill="white"/>
</g>
<defs>
<clipPath id="clip0_1_120">
<rect width="115.8" height="103.72" fill="white"/>
</clipPath>
</defs>
</svg>
