<svg width="155" height="31" viewBox="0 0 155 31" fill="none" xmlns="http://www.w3.org/2000/svg">
<g clip-path="url(#clip0_1_113)">
<path d="M65.8199 0.0499878H70.2999C69.8599 1.62999 71.0899 1.61999 71.6399 2.43999C74.8499 7.19999 77.5399 11.62 80.7899 16.22C81.0199 16.54 81.7499 17.43 82.2699 17.25V0.0499878H87.5099V29.22L83.0799 29.16C82.9499 28.64 82.8399 28.11 82.5399 27.65C79.2699 22.7 75.3299 17.93 72.4299 12.89C72.2999 12.67 71.4999 11.78 71.0599 12.02V29.22H65.8199V0.0499878Z" fill="white"/>
<path d="M115.06 0.930024C118.52 2.20002 123.14 7.01002 124.13 10.73C124.23 11.1 124.95 14.97 124.94 15.19C124.88 16 124.3 16.41 124.17 17.08C123.37 21.18 121.84 25.12 118.05 27.6C116.75 28.45 114.53 28.93 113.19 29.22C112.88 29.29 113.1 29.9 112.4 29.99C109.33 30.39 105.09 29.6 102.59 28.34C93.16 23.57 92.12 8.16002 101.08 2.41002C104.85 2.40803e-05 110.56 -0.709976 115.06 0.930024ZM114.33 6.16002C110.8 4.61002 107.25 5.06002 104.11 6.95002C103.93 7.06002 101.2 9.72002 101.09 9.90002C100.75 10.43 100.93 11.34 100.19 11.82L100.23 18.5C101.25 18.85 100.78 19.67 101.09 20.14C103.01 23.13 108.42 25.57 111.93 24.73C112.19 24.67 112.14 24.14 112.47 24.02C114.66 23.27 116.69 22.25 118.06 20.14C118.56 19.37 118.79 17.68 119 16.79C119.13 16.24 119.63 15.76 119.67 15.18C119.73 14.36 119.16 13.91 119 13.25C118.79 12.36 118.56 10.67 118.06 9.90002C117.92 9.68002 114.57 6.27002 114.33 6.17002V6.16002Z" fill="white"/>
<path d="M52.2099 2.45001C55.7899 4.81001 58.3899 9.69001 59.0699 13.72C59.3699 15.53 58.2399 19.62 57.5499 21.43C57.0999 22.61 53.4199 26.83 52.2099 27.57C35.7999 37.56 20.0399 15.49 34.8699 2.93001C39.7999 -0.489987 46.6299 -1.22999 52.2099 2.45001ZM48.5099 6.15001C47.0899 5.45001 43.6499 5.05001 42.0899 5.31001C39.0099 5.84001 34.9099 9.41001 34.4199 12.6C32.5699 24.85 47.5899 28.96 52.2999 19.93C54.1599 16.37 54.1899 13.86 52.4499 10.24C52.0399 9.39001 49.2699 6.52001 48.4999 6.14001L48.5099 6.15001Z" fill="white"/>
<path d="M145.66 0.799988C145.83 0.829988 148.37 2.22999 148.69 2.44999C149.86 3.24999 151.7 6.58999 151.85 8.05999C152.44 13.86 150.75 15.87 146.3 18.64C146 18.83 145.64 18.58 145.9 19.23C146.58 21.22 148.34 22.06 149.56 23.52C150.04 24.09 150.12 24.91 150.48 25.33C151.6 26.64 153.27 27.57 154.06 29.21H147.14C146.3 27.47 144.76 26.51 143.61 25.18C141.84 23.11 140.02 20.46 138.33 18.29C138.04 17.92 137.42 17.07 136.86 17.25V29.22H131.62V0.799988H145.64H145.66ZM136.87 6.21999V14.26H143.79C143.98 14.26 146.54 11.93 146.58 11.74C146.88 10.28 146.48 6.51999 144.82 6.04999C143.6 5.70999 137.2 5.16999 136.88 6.20999L136.87 6.21999Z" fill="white"/>
<path d="M5.24 0.800024V12.02H16.46V1.36002C17.76 0.210024 20.03 1.03002 21.7 0.800024V29.22C20.04 28.99 17.76 29.8 16.46 28.66V17.25H5.24V29.22H0V0.800024H5.24Z" fill="white"/>
</g>
<defs>
<clipPath id="clip0_1_113">
<rect width="154.07" height="30.11" fill="white"/>
</clipPath>
</defs>
</svg>
