<svg width="115" height="109" viewBox="0 0 115 109" fill="none" xmlns="http://www.w3.org/2000/svg">
<g clip-path="url(#clip0_1_2)">
<path d="M83.73 48.74C83.64 49.17 83.79 49.04 83.97 49.15C84.87 49.74 86.17 50.24 87.14 50.82C95.83 56.01 106.74 65.73 94.21 74.19C86.24 79.57 76.56 79.9 67.28 80.37H10.79L16.04 79.56C20.94 78.48 25.92 76.95 30.05 74.04L30.14 44C30.14 43.75 29.97 43.69 29.84 43.56C29.28 43 26.83 41.74 25.98 41.28C24.2 40.31 22.31 39.52 20.53 38.55L7.81 32.95L31.62 22.05C31.88 21.91 32.11 22 32.37 22.05C34.42 22.42 37.33 23.8 39.48 24.44C52.27 28.24 63.2 26.75 75.44 21.97C81.46 24.09 92.77 29.38 94.42 36.11C95.93 42.28 88.57 46.86 83.72 48.77L83.73 48.74ZM53.77 51.16C59.13 51.25 70.03 48.03 68.57 40.92C67.6 36.15 58.17 32.66 53.77 33.12V51.16ZM53.77 76.45C59.27 76.08 70.95 76.75 72.81 69.91C74.01 65.48 70.96 62.62 67.36 60.73C63.26 58.58 58.37 57.68 53.77 57.48V76.45Z" fill="white"/>
<path d="M60 -9.76585e-06C61.26 0.17999 62.04 1.16999 62.31 2.33999C63.77 2.61999 65.87 1.87999 66.58 3.64999C66.98 4.62999 66.77 6.23999 66.78 7.35999C66.78 7.86999 67.2 8.37999 66.7 8.74999C66.47 7.73999 65.78 7.54999 64.84 7.44999C63.5 7.31999 61.08 7.10999 60.66 8.74999H65.13C64.88 10.06 63.98 11.15 62.6 11.34C62.09 11.41 60.55 11.12 60.48 11.46C60.44 11.65 61.01 14.66 61.12 15.08C62.24 19.31 66.92 20.03 70.71 19.35C67.29 22 62.42 22.83 58.15 22.51C56.82 22.41 54.67 21.54 53.69 21.57C52.61 21.61 50.79 22.4 49.4 22.51C45.74 22.79 42.13 22.17 38.82 20.63L36.84 19.35C40.56 19.99 44.77 19.45 46.39 15.59L47.36 2.40999C46.52 2.03999 45.1 0.89999 45.87 -0.0100098H60.01L60 -9.76585e-06ZM59.17 3.71999H55.82C55.82 5.96999 59.05 5.93999 59.17 3.71999Z" fill="white"/>
<path d="M5.49294e-06 91.89C0.190005 91.59 6.28001 91.65 7.16001 91.71C10.41 91.91 14.12 92.9 13.56 96.99C13.34 98.6 12.27 99.14 11.16 100.07C14.41 100.57 15.23 104.51 13.2 106.86C11.76 108.53 9.24001 108.72 7.16001 108.82C4.78001 108.94 2.37001 108.71 -0.00999451 108.82V91.89H5.49294e-06ZM7.96001 97.99C8.27001 97.68 8.31001 96.85 7.92001 96.53C7.41001 96.11 6.05001 96.18 5.39001 96.17V98.22C6.00001 98.15 7.53001 98.41 7.95001 97.99H7.96001ZM5.39001 104.17C6.33001 104.03 7.96001 104.61 8.41001 103.56C9.14001 101.89 6.43001 101.85 5.39001 101.93V104.16V104.17Z" fill="white"/>
<path d="M78.8 91.71C80.37 91.83 82.44 92.31 83.64 93.38C86.23 95.69 85.6 100.61 82.24 101.85L86.19 108.14L86.34 108.83H80.11L76.67 102.69V108.55L76.39 108.83H71.09V91.72H78.81L78.8 91.71ZM76.47 98.96C80.71 99.49 80.76 95.61 76.47 96.17V98.96Z" fill="white"/>
<path d="M114.8 108.82H108.94L107.8 106.2L102.64 106.24L101.5 108.82H95.64L102.24 91.89C102.64 91.48 107.4 91.76 108.3 91.8L114.8 108.83V108.82ZM106.43 101.94C106.29 100.53 105.6 99.21 105.22 97.85L103.82 101.94H106.42H106.43Z" fill="white"/>
<path d="M63.54 108.82L62.54 106.33L57.15 106.25L56.1 108.83H50.52L50.32 108.45L56.93 91.8C57.83 91.76 62.59 91.49 62.99 91.9L69.51 108.45L69.31 108.83H63.54V108.82ZM61.21 101.94L59.81 97.85C59.43 99.21 58.74 100.53 58.6 101.94H61.2H61.21Z" fill="white"/>
<path d="M28.19 108.82L27.14 106.24L21.75 106.33L20.75 108.82H15.17L14.97 108.44C16.14 106.65 20.96 91.8 21.86 91.69C22.92 91.56 26.02 91.57 27.09 91.69C27.3 91.71 27.5 91.69 27.64 91.88L34.16 108.43L33.96 108.81H28.19V108.82ZM25.86 101.94C25.43 100.77 25.18 99.48 24.73 98.32C24.65 98.13 24.66 97.87 24.37 97.84L23.25 101.93H25.85L25.86 101.94Z" fill="white"/>
<path d="M39.44 91.71L42.32 102.31L45.02 91.71H51.35L51.22 92.61C49.1 97.45 47.83 102.96 45.72 107.76C45.46 108.34 45.47 108.75 44.75 108.84C43.68 108.97 40.58 108.97 39.52 108.84C39.32 108.81 39.11 108.85 38.97 108.65L33.11 91.72H39.44V91.71Z" fill="white"/>
<path d="M94.15 91.71H88.38V108.64H94.15V91.71Z" fill="white"/>
</g>
<defs>
<clipPath id="clip0_1_2">
<rect width="114.8" height="108.93" fill="white"/>
</clipPath>
</defs>
</svg>
