<svg width="228" height="74" viewBox="0 0 228 74" fill="none" xmlns="http://www.w3.org/2000/svg">
<g clip-path="url(#clip0_1_13)">
<path d="M219.7 34.75L206.09 58.33C205.51 59.1 204.79 61.21 206.27 61.4C209.28 61.79 215.01 54.6 216.6 52.24L218.49 52.31C214.97 57.23 211.06 62.3 206.07 65.81C203.49 67.62 196.99 71.7 196.23 66.1C196.08 64.97 196.44 63.95 196.33 62.85C192.93 65.66 189.48 70.36 184.41 68.47C180.54 67.02 181.72 62.29 182.64 59.22C178.82 63.06 172.76 72.71 166.53 66.98C161.77 62.6 166.52 55.36 167.6 50.59C167.76 49.87 166.02 50.49 165.58 50.51C164.87 50.54 164.19 50.46 163.5 50.38C159.64 57.3 154.09 68.56 144.99 69.17C132.27 70.02 141.06 52.78 144.52 47.62C147.68 42.9 154.66 35.53 160.55 34.82C163.35 34.49 165.49 35.99 166.25 38.68C167.2 42.05 165.61 45.22 164.48 48.32C165.8 48.34 167.1 48.45 168.29 47.78C172.96 38.09 178.08 28.5 184.73 20.01C190.08 13.17 197.84 5.11997 205.98 1.76997C209.02 0.519974 213.58 -1.09003 213.66 3.87997C213.7 6.64997 211.83 10.9 208.57 10.77C210.02 9.14997 212.58 5.74997 211.33 3.51997C210.17 1.42997 206.57 4.55997 205.41 5.55997C195.42 14.16 184.3 30.43 179.21 42.59C179.13 42.78 178.48 43.91 179.13 43.72C188.49 37.42 196.44 29.29 203.13 20.23L205.18 19.86C199.71 28.69 192.26 36.05 184.08 42.37C182.95 43.24 177.18 47 176.83 47.53C176 48.78 174.4 54.18 174.05 55.83C173.46 58.62 172.42 64.13 177.16 61.85C181.55 59.74 188.79 47.57 192.46 43.24C196.61 38.35 204.54 31.03 210.85 36.69L212.33 34.76H219.72L219.7 34.75ZM207.04 37.47C202.83 38.06 195.69 49 193.65 52.68C192.7 54.4 189.41 60.28 191.74 61.62C194.45 63.18 198.05 58.36 199.35 56.45C202.91 51.19 205.73 45.02 209.22 39.67C209.62 38.25 208.4 37.29 207.04 37.48V37.47ZM161.01 37.72C157.85 38.09 154.84 41.92 156.84 44.91C157.77 46.3 161.66 49.16 162.97 47.19C164.55 44.81 165.52 37.18 161.01 37.71V37.72ZM161.31 49.78C158.14 49.29 155.52 47.14 153.92 44.45C152.69 46.22 151.45 47.99 150.36 49.86C148.54 52.99 141.89 64.74 150.69 62.31C155.38 61.01 159.4 53.98 161.3 49.79L161.31 49.78Z" fill="white"/>
<path d="M107.05 18.52L91.55 46.04C91.5 46.58 91.85 47.03 92.39 47.1C94.83 47.14 101.51 38.54 102.94 36.33C103.29 36.12 104.56 36.15 105 36.21C105.33 36.26 105.42 36.07 105.36 36.57C101.69 41.53 97.95 47.08 93.12 50.98C88.98 54.33 82.92 57.34 83.07 49.05C80.46 51.66 75.47 56.36 71.61 53.61C68.95 51.72 70.29 47.76 70.84 45.17C68.42 47.09 66.45 49.53 63.92 51.33C53.51 58.72 46.17 52.07 50.44 40.51C51.33 38.1 52.75 35.94 53.65 33.54C52.79 33.8 51.51 33.89 50.73 34.25C49.62 34.76 47.7 38.78 46.85 40.06C43.8 44.67 38.06 51.64 32.86 53.69C26.24 56.3 24.27 51.26 24.97 45.56C26.06 36.71 35.35 24.37 42.89 19.87C50.12 15.55 55.74 17.58 53.41 26.75C53.06 28.13 52.12 29.8 51.86 31.02C51.76 31.51 52.08 31.4 52.44 31.36C57.83 30.79 64.34 19.35 71.4 17.85C79.94 16.03 79.96 25.49 75.23 29.91C72.13 32.8 69.51 30.19 71.6 26.52C72.65 24.69 74.07 24.05 76.08 23.7L75.95 21.9C75.22 21.1 74.49 21.18 73.54 21.43C67.89 22.97 59.57 36.8 58.07 42.3C57.21 45.44 57.41 49.84 61.79 48.93C68.04 47.63 76.78 33.37 80.92 28.33C83.81 24.81 90.51 17.49 95.33 17.59C97.55 17.64 97.98 19.32 98.97 19.72C99.49 19.93 99.73 18.51 99.81 18.51H107.08L107.05 18.52ZM49.11 31.56C50.12 29.03 51.61 26.33 51.33 23.48C50.94 19.59 46.97 21.18 45.28 23.25C42.02 27.24 44.18 31.4 49.11 31.56ZM79.24 47.05C80.25 47.68 80.95 47.23 81.82 46.72C84.79 44.99 87.82 39.36 89.64 36.37C91.92 32.61 95.69 26.84 97.32 22.98C97.83 21.78 97.08 21.09 95.89 21.29C93.89 21.61 91.82 24.22 90.57 25.68C87.51 29.27 84.01 34.08 81.8 38.23C81.01 39.72 77.93 45.75 79.23 47.06L79.24 47.05ZM41.03 29.19C38.57 32.59 35.86 36.61 34.54 40.63C33.83 42.78 32.65 47.88 36.61 47.06C40.57 46.24 45.73 37.48 47.68 34.15C44.87 33.13 42.76 31.64 41.02 29.19H41.03Z" fill="white"/>
<path d="M157.92 3.74003C157.99 3.09003 157.92 3.35003 157.56 3.26003C154.7 2.54003 151.37 4.60003 148.98 6.06003C135.05 14.57 115.96 40.71 114.59 57.19C113.96 64.8 118.63 69.21 125.68 64.89C131.36 61.41 137.39 52.65 138.95 46.19C139.44 44.17 140.62 38.85 136.98 39.37C133.34 39.89 129.67 47.8 129.27 51.17C125.77 52.83 122.49 55.31 120 58.26C120.5 51.36 123.46 43.77 128.84 39.24C132.71 35.98 140.92 32.8 141.68 40.46C142.57 49.44 134.68 61.01 128.12 66.63C114.05 78.68 101.37 69.98 105.46 52.45C109.55 34.92 129.1 9.71003 146.2 2.32003C150.15 0.610028 155.24 -1.18997 159.29 1.03003C159.8 1.31003 160.22 2.01003 160.71 2.05003C161.26 2.10003 165.98 0.290028 167.51 0.130028C177.16 -0.839972 184.67 5.45003 192.55 9.91003L187.47 15.49L186.89 15.61C180.15 12.3 172.93 5.10003 165.24 4.29003C161.28 3.87003 162.34 4.71003 162.03 7.49003C161.28 14.22 156.64 23.09 151.11 27.1C145.78 30.96 140.32 30.11 142.29 22.4C144.26 14.69 151.53 7.52003 157.91 3.74003H157.92ZM159.61 5.44003C153.89 8.57003 148.93 13.7 145.92 19.49C144.87 21.5 142.01 27.96 146.84 26.95C151.18 26.05 157.14 16.94 158.47 12.9C158.82 11.83 160.26 5.97003 159.61 5.44003Z" fill="white"/>
<path d="M105.11 71.33C103.39 70.9 101.82 69.97 100.15 69.39C92.67 66.79 83.98 65.73 78.83 73.03C75.9 67.24 68.8 65.81 62.85 65.51C45.84 64.65 20.88 80.1 6.52999 68.77C-6.22001 58.7 2.35999 37.58 9.84999 26.83C16.69 16.99 33.81 -1.36003 46.98 0.69997C53.85 1.77997 52.21 11.35 47.68 14.27C44.93 16.04 42.93 13.74 43.94 10.78C44.95 7.81997 47.54 6.79997 50.25 6.17997C50.1 3.72997 47.71 3.29997 45.65 3.52997C38.9 4.29997 27.61 17.78 23.74 23.29C16.94 33 5.36999 53.14 14.25 64.18C20.23 71.62 30.4 69.42 38.47 67.58C46.91 65.66 55.08 62.53 63.62 60.99C77.76 58.45 94.77 60.57 105.09 71.33H105.11Z" fill="white"/>
<path d="M227.2 0.349976C227.36 0.529976 225.06 4.08998 224.74 4.53998C220.36 10.75 213.62 16.1 206.26 18.28C202.64 19.35 198.33 20.02 194.75 18.64L199.84 12.58C200.51 12.27 201.52 12.75 202.38 12.72C208.01 12.52 213.07 10.69 217.84 7.80998C221.27 5.73998 224.29 3.06998 227.21 0.349976H227.2Z" fill="white"/>
<path d="M118.92 18.52L115.28 25.06H108.26L112.25 18.52H118.92Z" fill="white"/>
</g>
<defs>
<clipPath id="clip0_1_13">
<rect width="227.21" height="73.03" fill="white"/>
</clipPath>
</defs>
</svg>
