<svg width="261" height="65" viewBox="0 0 261 65" fill="none" xmlns="http://www.w3.org/2000/svg">
<g clip-path="url(#clip0_1_21)">
<path d="M178.79 27.37V38.51H171.76V6.04999H185.45C186.49 6.04999 188.95 6.67999 189.99 7.07999C200.56 11.06 197.89 27.37 185.93 27.37H178.78H178.79ZM178.79 21.79H184.97C185.19 21.79 186.7 21.32 187.03 21.18C190.77 19.65 190.84 14.03 187.45 12.29C187.15 12.14 185.45 11.61 185.22 11.61H178.8V21.78L178.79 21.79Z" fill="white"/>
<path d="M228.69 6.04999V23.73C231.15 21.14 233.6 18.54 236.09 15.98C236.37 15.7 236.4 15.25 236.44 15.25H244.19L235.77 24.09L245.16 38.51H237.41L231.35 28.34C231.1 28.15 228.69 30.46 228.69 30.64V38.51H222.15V6.04999H228.69Z" fill="white"/>
<path d="M0 38.51L21.92 0.719971L33.67 20.94L31.57 19.17C19.09 10.84 6.78 29.66 19.39 37.64C19.95 38 20.75 38.01 21.07 38.5H0V38.51Z" fill="white"/>
<path d="M105.38 28.58H88.18C88.04 32.89 92.29 35.42 96.18 33.79C97.56 33.21 97.88 31.99 98.96 31.23C100.87 31.73 102.85 31.26 104.77 31.73C104.99 31.78 105.28 31.58 105.13 32.08C104.26 35.03 100.74 38.01 97.82 38.82C80.6 43.6 76.08 19.16 89.5 14.99C98.72 12.13 105.97 19.54 105.38 28.57V28.58ZM98.6 24.22C98.02 18.39 89.24 17.91 88.28 23.72C88.23 24.03 88.35 24.03 88.55 24.22H98.6Z" fill="white"/>
<path d="M218.28 38.51H211.74L211.13 36.08C206.81 42.97 192.24 37.77 196.11 29.3C198.55 23.97 205.24 25.09 209.55 23.6C211.96 22.77 211.59 20.45 209.55 19.48C206.89 18.22 202.74 19.06 202.5 22.49L196.95 22.27C197.37 16.55 201.41 14.39 206.72 14.37C221.99 14.3 216.36 27.09 217.54 36.94C217.63 37.67 217.88 37.94 218.27 38.51H218.28ZM211.25 26.88C208.9 28.08 205.78 27.99 203.53 29.21C199.92 31.16 202.41 34.8 206.03 34.64C207.98 34.55 211.25 32.85 211.25 30.63V26.87V26.88Z" fill="white"/>
<path d="M153.96 38.51L153.23 36.09C150.12 41.48 138.67 39.47 137.66 33.49C136.9 28.97 139.61 26.28 143.66 25.07C145.39 24.56 152.18 23.89 152.84 22.86C155.63 18.51 143.97 17.06 144.63 22.52L139.06 22.28C139.05 18.78 141.1 15.97 144.44 14.94C148.82 13.59 156.76 14.31 158.8 19.13C160.41 22.93 158.89 31.89 159.41 36.45C159.5 37.21 159.78 37.85 160.14 38.51H153.96ZM153.35 26.88C151.39 27.9 144.64 28.39 143.95 30.68C142.55 35.37 151.14 35.99 152.87 31.61C153.48 30.08 153.35 28.49 153.34 26.88H153.35Z" fill="white"/>
<path d="M86.49 6.04999V11.86H76.55V38.51H69.77V11.86H60.08V6.04999H86.49Z" fill="white"/>
<path d="M115.56 7.97998V15.25H119.92V19.61H115.56V32.33C115.56 33.74 118.88 34.09 119.92 33.9V38.5H113.74C113.61 38.5 112.57 38.09 112.32 37.98C110.63 37.28 109.66 35.94 109.37 34.15C108.67 29.84 109.69 24.43 109.23 20C108.98 19.24 106.58 19.74 105.87 19.6V15.24H109.26V7.72998L115.56 7.96998V7.97998Z" fill="white"/>
<path d="M137.36 14.77V20.34C134.77 20.02 132.06 21.02 130.94 23.49C130.65 24.13 130.09 26.14 130.09 26.76V38.51H123.79V15.25H129.85L130.33 18.4C131.35 15.44 134.34 14.05 137.36 14.77Z" fill="white"/>
<path d="M109.49 51.6L111.44 59.83L114.13 51.62L116.86 51.58L119.56 60.07L121.73 51.83L124.76 51.59L120.9 64.32L118.25 64.41L115.44 55.71L112.62 64.4L110.01 64.41L106.35 51.72L109.49 51.6Z" fill="white"/>
<path d="M223.06 51.41C228.43 50.68 232.41 54.19 231.32 59.68C229.97 66.49 219.55 66.7 217.8 60.18C216.72 56.17 218.78 52 223.06 51.41ZM227.4 61.2C229.55 59.06 228.65 54.37 225.18 54.01C218.38 53.31 219.24 63.78 225.74 62.08C226.18 61.96 227.08 61.51 227.4 61.19V61.2Z" fill="white"/>
<path d="M203.83 53.13C207.64 49.38 215.25 51.43 215.86 57.04C216.93 67.02 202.77 67.23 202.04 59.23C201.84 57.05 202.22 54.72 203.83 53.13ZM207.79 54.07C203.8 54.81 203.95 61.69 208.24 62.23C214.62 63.03 214.58 52.81 207.79 54.07Z" fill="white"/>
<path d="M30.47 51.41C31.38 51.28 32.59 51.28 33.49 51.41C41.31 52.55 40.87 65.27 31.61 64.93C23.12 64.61 22.88 52.52 30.47 51.41ZM30.7 54.07C27.02 54.82 26.77 61.67 31.39 62.23C37.69 63 37.69 52.64 30.7 54.07Z" fill="white"/>
<path d="M199.86 63.58C194.31 66.68 186.72 64.42 187.53 57.06C188.18 51.2 195.45 49.7 199.61 52.92L197.91 54.87C197.47 55.09 196.41 54.15 195.59 54.03C187.65 52.87 189.4 65.24 197.16 61.74L197.19 59.58H194.76V56.92H199.85V63.58H199.86Z" fill="white"/>
<path d="M233.54 64.43V51.59H239.23C239.41 51.59 241.21 52.09 241.53 52.2C246.28 53.95 246.77 60.77 242.59 63.42C242.31 63.6 240.36 64.43 240.21 64.43H233.55H233.54ZM236.2 54.26V61.65C237.73 62.6 241.25 61.7 242.07 60.01C244.05 55.94 239.81 53.56 236.2 54.27V54.26Z" fill="white"/>
<path d="M19.02 51.59C23.5 52.15 24.1 57.85 19.87 59.22L23.02 64.43H19.63L17.17 59.38L15.75 59.34V64.43H12.84V51.59C14.79 51.76 17.11 51.35 19.02 51.59ZM15.75 56.92C21.32 57.79 21.05 53.24 15.75 54.01V56.92Z" fill="white"/>
<path d="M61.53 51.59V54.26H55.72V56.68H61.29V59.34H55.72V62.01H62.02V64.43H52.81V51.59H61.53Z" fill="white"/>
<path d="M129.61 51.59V56.44H135.42V51.59H138.09V64.43H135.42V59.22L135.06 58.86H129.97L129.61 59.22V64.43H126.94V51.59H129.61Z" fill="white"/>
<path d="M148.23 51.62L153.59 64.43L150.48 64.39L149.5 61.92L144.55 61.76L143.38 64.39L140.27 64.43L145.62 51.98C146.11 51.3 147.45 51.64 148.23 51.63V51.62ZM148.51 59.34L146.82 55.47L145.36 59.34H148.51Z" fill="white"/>
<path d="M23.92 23.54C27.94 22.72 29.38 25.51 31.46 28.25C29.47 31.13 27.35 34.37 23.33 32.73C19.05 30.99 19.69 24.39 23.91 23.53L23.92 23.54Z" fill="white"/>
<path d="M3.62998 59.59V64.44H0.72998V51.6H6.90998C7.01998 51.6 8.67998 52.17 8.89998 52.28C10.55 53.15 10.73 55.54 10.31 57.18C9.66998 59.67 5.68998 59.65 3.63998 59.6L3.62998 59.59ZM3.62998 57.16C4.69998 57.13 7.22998 57.48 7.49998 56.06C7.97998 53.63 5.24998 54 3.62998 54.01V57.16Z" fill="white"/>
<path d="M98.1 52.33C98.5 52.91 96.68 54.28 96.3 54.7C95.29 53.34 91.26 53.93 92.53 55.85C93.73 57.66 98.08 56.42 98.21 60.52C98.38 65.45 92 65.89 88.91 63.46L90.97 61.05C92.03 62.4 94.68 62.95 95.41 61.11C95.73 58.95 90.41 59.32 89.59 56.86C87.9 51.77 94.62 50.01 98.11 52.34L98.1 52.33Z" fill="white"/>
<path d="M173.52 56.13C174.66 57.33 178.55 56.79 179.01 59.72C179.87 65.2 173.21 66.25 169.84 63.34L171.88 61.04C172.58 62.61 176.43 62.67 176.34 60.92C176.23 58.77 170.81 59.41 170.33 56.3C169.56 51.32 175.94 49.9 179.01 52.68L177.23 54.68C176.01 53.15 171.79 54.3 173.53 56.13H173.52Z" fill="white"/>
<path d="M75.55 53.5L73.52 54.94C71.83 53.18 68.78 53.88 67.79 56.03C65.93 60.08 70.07 64.44 73.57 61.06L76.07 62.5C73.71 66.41 66.8 65.27 65.05 61.28C62.64 55.79 66.61 50.54 72.54 51.37C73.25 51.47 76.1 52.54 75.55 53.5Z" fill="white"/>
<path d="M252.14 0.0600264C262.43 -1.05997 263.7 14.16 253.99 15.23C243.85 16.34 242.36 1.13003 252.14 0.0600264ZM253.04 1.34003C245.94 1.34003 244.37 11.54 251.27 13.63C260.41 16.4 262.61 1.35003 253.04 1.34003Z" fill="white"/>
<path d="M47 18.64L39.73 28.09C39.47 28.27 35.99 23.81 35.65 23.32L39.37 18.64H47Z" fill="white"/>
<path d="M87.46 51.59V54.01H83.83V64.43H80.92V54.38C80.47 53.6 77.52 54.26 77.28 54.02V51.6H87.46V51.59Z" fill="white"/>
<path d="M50.39 51.59V54.01H46.88L46.52 54.37V64.42H43.86V54.37C43.41 53.59 40.46 54.25 40.22 54.01V51.59H50.4H50.39Z" fill="white"/>
<path d="M163.04 51.59V54.01C162.8 54.25 159.85 53.59 159.41 54.37V64.42H156.75V54.37L156.39 54.01H152.88V51.59H163.05H163.04Z" fill="white"/>
<path d="M29.56 38.51L32.47 36.7L35.37 33.18L39.65 37.01L43.36 38.51H29.56Z" fill="white"/>
<path d="M168.61 51.59L167.15 56.67L164.74 56.68L165.97 51.62L168.61 51.59Z" fill="white"/>
<path d="M253.77 3.14003C257.14 3.55003 257.71 7.11003 254.61 8.35003L256.55 11.86C256.12 11.78 255.2 12.01 254.89 11.82C254.73 11.72 253.43 8.83003 253.04 8.47003C251.11 6.69003 251.87 11.7 251.71 11.86H250.26V3.14003C251.38 3.24003 252.68 3.01003 253.77 3.14003ZM251.71 7.02003C256.14 7.65003 256.19 3.91003 251.71 4.59003V7.02003Z" fill="white"/>
</g>
<defs>
<clipPath id="clip0_1_21">
<rect width="260.61" height="64.94" fill="white"/>
</clipPath>
</defs>
</svg>
