<svg width="269" height="40" viewBox="0 0 269 40" fill="none" xmlns="http://www.w3.org/2000/svg">
<g clip-path="url(#clip0_1_55)">
<path d="M113.58 1.57001L114.61 37.99H105.14L104.94 10.62L104.3 10.74L99.2599 38L89.3099 37.97L84.3499 10.63L83.5399 10.62V37.99H74.0699L74.6899 1.77001H90.6399L93.8399 21.51L94.5399 21.53L97.7399 1.57001H113.58Z" fill="white"/>
<path d="M213.58 1.57001L223.56 23.79L223.05 1.57001H232.51V37.99H221.19C218.02 31.16 215.19 24.12 211.9 17.34C211.66 16.84 211.37 15.93 210.8 15.77L211.31 37.99H201.85V1.57001H213.58Z" fill="white"/>
<path d="M173.04 1.57001V29.86C173.04 30.96 174.8 31.97 175.82 32.03C176.84 32.09 178.59 31.12 178.59 30.07V1.57001H188.88V30.27C188.88 40.59 166.74 42.82 163.16 32.33C162.97 31.76 162.55 30.38 162.55 29.86V1.57001H173.04Z" fill="white"/>
<path d="M150.62 12.68H141.16V9.28003C141.16 8.74003 140.23 7.86003 139.72 7.63003C137.07 6.45003 134.98 8.52003 135.7 11.24C136.42 13.96 145.86 17.04 148.47 19.46C151.51 22.27 151.58 27.22 151.25 31.1C150.46 40.26 134.02 41.28 128.3 36.54C127.06 35.51 125.31 32.93 125.31 31.3V26.26H135.6V30.27C135.6 30.69 136.76 31.8 137.24 31.92C140.38 32.77 142.11 29.87 140.71 27.21C138.84 23.65 129.8 22.43 127.13 17.34C125.79 14.79 125.73 8.28003 126.8 5.62003C129.43 -0.899974 143.12 -0.799974 148.02 2.83003C148.93 3.51003 150.63 5.69003 150.63 6.81003V12.67L150.62 12.68Z" fill="white"/>
<path d="M25.31 12.68H15.85V9.48997C15.85 9.04997 15.11 8.02997 14.69 7.76997C12.16 6.23997 9.41001 8.41997 10.4 11.24C11.74 15.06 21.76 16.54 24.58 21.34C26.35 24.35 26.68 31.54 24.78 34.47C21.08 40.2 8.28001 40.71 3.20001 36.75C1.92001 35.75 0.0100098 33.16 0.0100098 31.51V26.26H10.3V30.27C10.3 30.74 11.28 31.69 11.8 31.86C14.42 32.71 16.44 30.72 15.76 28.1C14.76 24.21 4.82001 22.33 2.11001 17.89C0.44001 15.19 0.19001 7.75997 1.77001 5.07997C5.21001 -0.75003 19.49 -1.16003 23.75 3.84997C24.24 4.42997 25.31 6.31997 25.31 7.01997V12.68Z" fill="white"/>
<path d="M267.69 12.47H258.02V8.87002C258.02 8.62002 257.18 7.52002 256.86 7.35002C255.54 6.67002 253.14 7.27002 252.89 8.88002V29.64C253.32 31.7 255.69 32.56 257.3 31.2C258.91 29.84 258.03 25.44 258.2 23.51C257.99 22.87 256.14 23.28 255.55 23.17V17.82H267.59C267.88 18 267.87 18.23 267.91 18.53C268.23 21.26 268.09 31.1 267.24 33.52C265.11 39.57 254.35 39.75 249.28 38C245.55 36.71 243.3 34.29 243 30.29C242.49 23.45 243.41 15.99 243 9.08002C243.34 -3.04998 267.7 -2.90998 267.7 8.88002V12.48L267.69 12.47Z" fill="white"/>
<path d="M63.7899 37.99H53.8099L49.9699 10.14C49.9399 9.77 48.9999 9.64 48.9699 9.92L45.2699 37.99H35.1899L41.4599 1.77L42.0699 1.56L57.5299 1.76L63.7899 37.99Z" fill="white"/>
</g>
<defs>
<clipPath id="clip0_1_55">
<rect width="268.07" height="39.32" fill="white"/>
</clipPath>
</defs>
</svg>
