<svg width="174" height="42" viewBox="0 0 174 42" fill="none" xmlns="http://www.w3.org/2000/svg">
<g clip-path="url(#clip0_1_64)">
<path d="M50.4 27.5401V41.2601H44.11V1.53006H50.4V4.10006C61.4 -3.90994 86.35 -0.359941 85.57 16.5501C84.95 29.8401 67.83 33.2601 57.32 30.4801C54.81 29.8101 52.7 28.6701 50.39 27.5501L50.4 27.5401ZM61.77 5.33006C57.23 5.79006 51.99 8.50006 50.81 13.2401C46.85 29.1801 77.97 30.7701 79.26 16.8201C80.18 6.95006 69.53 4.54006 61.77 5.33006Z" fill="white"/>
<path d="M94.71 27.5399V41.2599H88.42V1.52995H94.71V4.09995C105.61 -4.24005 131.84 0.149946 129.79 17.3099C128.27 30.0699 112.05 33.2299 101.64 30.4699C99.13 29.7999 97.02 28.6599 94.71 27.5399ZM106.08 5.32995C98.95 6.05995 92.51 11.5799 95.42 19.2499C99.33 29.5199 122.81 28.6199 123.58 16.5499C124.2 6.86995 113.71 4.54995 106.07 5.32995H106.08Z" fill="white"/>
<path d="M16.89 0.17996C26.56 -0.76004 40.24 2.66996 41.24 14.25C43.23 37.15 -2.19001 37.27 0.079987 13.96C0.869987 5.88996 9.49999 0.89996 16.89 0.17996ZM17.46 5.32996C13.12 5.76996 7.23999 8.70996 6.43999 13.46C3.65999 29.99 33.64 29.98 34.96 17.1C35.99 6.96996 25.49 4.50996 17.47 5.31996L17.46 5.32996Z" fill="white"/>
<path d="M149.54 0.17998C160.65 -0.95002 175.23 3.77998 173.9 17.39C172.19 34.93 138.23 36.49 133.3 19.68C130.11 8.80998 139.61 1.18998 149.54 0.17998ZM150.1 5.31998C145.57 5.82998 139.81 8.74998 139.09 13.75C136.72 30.04 165.94 29.6 167.58 17.65C169.01 7.19998 158.41 4.37998 150.1 5.31998Z" fill="white"/>
</g>
<defs>
<clipPath id="clip0_1_64">
<rect width="173.98" height="41.26" fill="white"/>
</clipPath>
</defs>
</svg>
