<svg width="150" height="40" viewBox="0 0 150 40" fill="none" xmlns="http://www.w3.org/2000/svg">
<g clip-path="url(#clip0_1_70)">
<path d="M145.6 13.6499C152.23 19.5599 151.36 33.3399 143.04 37.4099C138.58 39.5999 126.95 39.3199 121.75 39.0099C111.87 38.4199 106.43 31.2199 108.21 21.4799C109.72 13.1999 115.39 10.6399 123.15 10.2799C129.35 9.98995 140.84 9.39995 145.6 13.6399V13.6499ZM122.3 16.8999C111.72 17.8099 112.08 31.6999 122.23 32.4599C125.6 32.7099 136.7 32.8699 139.38 31.6499C145.02 29.0899 144.6 19.0199 138.32 17.3099C135.01 16.4099 125.94 16.5899 122.3 16.8999Z" fill="white"/>
<path d="M0.0800563 11.26C0.350056 10.83 6.66006 10.75 7.50006 11.59L20.7101 31.76C21.1801 32.37 21.9201 32.67 22.6301 32.3L36.4701 11.59C37.3701 10.87 41.6801 10.83 42.8901 10.99C43.5601 11.08 43.9601 11.31 43.9501 12.05C43.9501 12.56 41.6301 15.95 41.1301 16.72C36.6401 23.75 32.0101 30.94 26.8701 37.47C23.6301 39.97 18.1901 39.4 15.6901 36.08L0.320056 12.94C0.0800563 12.59 -0.109944 11.57 0.0800563 11.26Z" fill="white"/>
<path d="M106.18 11.2901C106.86 11.9501 105.57 13.5701 105.17 14.2501C100.83 21.5701 95.34 28.6001 90.83 35.8501C88.61 38.8301 84.66 39.7101 81.2 38.4901C79.29 37.8101 77.92 35.8701 76.78 34.2801C72.45 28.2501 67.3 20.5301 63.52 14.1601C62.71 12.7901 61.22 11.2301 63.86 10.9901C65.28 10.8601 68.88 10.7801 69.94 11.7001L82.93 31.3901C83.48 32.0801 83.94 32.8401 84.93 32.3101L98.98 11.5901C99.81 10.7301 105.68 10.8401 106.17 11.3101L106.18 11.2901Z" fill="white"/>
<path d="M51.8 11.05C53.65 10.72 56.26 10.93 56.53 13.21L56.51 37.01C56.09 39.66 50.17 40.17 49.76 36.56C48.94 29.41 50.37 20.76 49.76 13.45C49.94 12.29 50.59 11.28 51.8 11.06V11.05Z" fill="white"/>
<path d="M52.2601 0.0799699C54.0301 -0.33003 55.7401 0.92997 56.6401 2.36997C58.3401 5.08997 54.5501 8.88997 51.7801 7.46997C50.4801 6.79997 49.1301 4.91997 49.2901 3.40997C49.4001 2.44997 51.3601 0.28997 52.2601 0.0799699Z" fill="white"/>
</g>
<defs>
<clipPath id="clip0_1_70">
<rect width="150" height="39.22" fill="white"/>
</clipPath>
</defs>
</svg>
