<svg width="162" height="31" viewBox="0 0 162 31" fill="none" xmlns="http://www.w3.org/2000/svg">
<g clip-path="url(#clip0_1_106)">
<path d="M154.9 0.279987C154.98 0.319987 154.96 0.709987 155.17 0.749987C155.59 0.839987 156.06 0.659987 156.48 0.749987C156.55 0.769987 157.66 1.35999 157.73 1.39999C157.9 1.50999 160.51 4.02999 160.57 4.21999C160.75 4.73999 160.55 5.19999 160.66 5.65999C160.71 5.87999 161.17 5.83999 161.22 6.04999C161.6 7.62999 161.52 22.14 161.25 24.18C161.18 24.71 160.72 24.55 160.66 24.78C160.56 25.24 160.76 25.7 160.57 26.22C160.5 26.41 157.9 28.93 157.73 29.04C157.52 29.17 157.11 29.1 156.78 29.23C156.68 29.27 156.67 29.65 156.49 29.69C155.91 29.83 155.2 29.57 154.61 29.7C154.39 29.75 154.54 30.22 154.01 30.28C151.01 30.67 140.23 30.67 137.23 30.28C136.7 30.21 136.85 29.74 136.63 29.7C136.04 29.57 135.33 29.82 134.75 29.69C134.56 29.65 134.56 29.26 134.46 29.23C134.13 29.1 133.72 29.18 133.51 29.04C133.34 28.93 130.78 26.37 130.67 26.2C130.49 25.91 130.59 25.19 129.99 24.75V5.70999C131.4 2.92999 131.46 2.44999 134.46 1.22999C134.56 1.18999 134.56 0.809987 134.75 0.759987C135.17 0.659987 135.64 0.839987 136.06 0.759987C136.29 0.709987 136.13 0.239987 136.66 0.169987C138.34 -0.0500132 154.08 -0.100013 154.91 0.279987H154.9ZM150.36 4.81999L140.99 4.74999C140.68 5.37999 139.45 6.08999 139.17 6.52999C138.94 6.88999 139.29 7.50999 138.52 7.77999L138.49 22.5C139.09 22.94 138.99 23.67 139.17 23.95C139.45 24.39 140.68 25.1 140.99 25.73H149.67C149.94 24.96 150.55 25.31 150.92 25.08C152.46 24.1 151.88 23.18 152.15 21.96C152.2 21.74 152.67 21.89 152.73 21.36C153.02 19.14 153.02 11.33 152.73 9.11999C152.66 8.58999 152.19 8.73999 152.15 8.51999C152.02 7.93999 152.25 7.24999 152.13 6.64999C152.11 6.52999 150.48 4.86999 150.37 4.82999L150.36 4.81999Z" fill="white"/>
<path d="M119.78 0.190002C119.78 0.190002 119.67 0.690002 119.96 0.760002C122.93 0.370002 126.4 3.85 126.01 6.81C126.09 7.11 126.58 6.96 126.58 6.99V29.7C126.58 29.7 126.26 29.65 126.11 29.8C125.96 29.95 126.03 30.27 126.01 30.27H118.06C118.06 30.27 118.11 29.95 117.96 29.8C117.81 29.65 117.49 29.72 117.49 29.7V7.01C117.49 7.01 117.12 7.09 117 6.94C116.83 6.73 117 5.8 116.26 5.4C115.96 5.24 115.49 5.4 115.29 5.23C115.14 5.11 115.24 4.74 115.22 4.74H103.87V30.28H95.36V0.190002H119.77H119.78Z" fill="white"/>
<path d="M61.3101 0.190002V4.16H45.9801C45.9201 4.16 45.6801 5.06 45.3301 5.21C44.9801 5.36 44.3601 5.23 44.2901 5.31C44.1901 5.41 44.3701 5.96 44.2701 6.22C44.1601 6.49 43.7701 6.44 43.7201 6.64C43.6001 7.12 43.6201 9.43 43.6901 10C43.7101 10.13 45.3401 11.93 45.5001 12.03C45.7501 12.2 46.2601 12.03 46.4801 12.19C46.6301 12.31 46.5201 12.68 46.5501 12.68H61.3101V16.65H43.7101C43.7101 16.65 43.7601 16.97 43.6101 17.12C43.4601 17.27 43.1401 17.2 43.1401 17.22V21.19C43.1401 21.19 43.6401 21.07 43.7101 21.37C42.9501 22.24 44.8901 24.87 45.4801 25.08C46.0201 25.27 46.5001 25.05 46.9301 25.16C47.2401 25.23 47.0801 25.73 47.1201 25.73H61.3101V29.7H40.3101C40.3101 29.7 40.3901 29.32 40.2401 29.21C40.0901 29.1 38.3701 28.63 38.1301 28.48C37.9901 28.39 35.9501 26.35 35.8601 26.21C35.6801 25.92 35.7801 25.2 35.1801 24.76L35.2101 4.36C35.9801 4.09 35.6301 3.47 35.8601 3.11C35.9301 3.01 37.4601 1.47 37.5601 1.41C37.8001 1.26 39.5301 0.790002 39.6701 0.680002C39.8101 0.570002 39.7101 0.190002 39.7401 0.190002H61.3101Z" fill="white"/>
<path d="M91.39 0.190002V4.16H76.63C76.63 4.16 76.71 4.53 76.56 4.65C76.34 4.82 75.83 4.65 75.58 4.81C75.13 5.11 74.44 6.31 73.8 6.63L73.77 23.04C74.01 23.32 75.43 25.03 75.56 25.08C76.1 25.27 76.58 25.05 77.01 25.16C77.32 25.23 77.16 25.73 77.2 25.73H91.39V29.7H70.95C70.95 29.7 71.07 29.2 70.77 29.13C70.38 29.04 69.88 29.23 69.45 29.13C69.26 29.09 69.26 28.7 69.16 28.66C68.26 28.31 66.5 27.08 65.94 26.21C65.76 25.92 65.86 25.2 65.26 24.76L65.29 4.37C66.31 3.91 66.19 3.07 66.51 2.56C66.59 2.43 68.64 0.920002 68.77 0.850002C69.06 0.690002 69.53 0.850002 69.75 0.680002C69.9 0.560002 69.8 0.190002 69.82 0.190002H91.39Z" fill="white"/>
<path d="M31.22 0.190002V4.16H22.71C22.71 4.16 22.79 4.53 22.64 4.65C22.42 4.82 21.91 4.65 21.66 4.81C20.74 5.42 20.6 6.62 20.36 6.92C20.24 7.07 19.87 6.96 19.87 6.99V29.7H11.36V4.17H0V0.190002H31.22Z" fill="white"/>
</g>
<defs>
<clipPath id="clip0_1_106">
<rect width="161.47" height="30.6" fill="white"/>
</clipPath>
</defs>
</svg>
