<svg width="194" height="32" viewBox="0 0 194 32" fill="none" xmlns="http://www.w3.org/2000/svg">
<g clip-path="url(#clip0_1_77)">
<path d="M176.1 30.32H169.11V10.14C169.11 10.04 168.64 8.36001 168.55 8.16001C167.39 5.62001 157.98 5.62001 157.98 9.19001V30.33H150.99V10.14C150.99 9.52001 150.28 7.69001 149.74 7.26001C147.94 5.81001 139.86 5.96001 139.86 9.19001V30.33H132.55V9.19001C132.55 8.37001 133.14 5.91001 133.5 5.05001C135.9 -0.65999 146.97 0.0400102 151.88 1.31001C152.7 1.52001 153.66 2.31001 154.35 2.36001C155.04 2.41001 157.76 1.15001 158.92 0.92001C163.77 -0.0699897 172.93 -0.0699902 175.31 5.23001C175.44 5.53001 176.1 7.49001 176.1 7.62001V30.35V30.32Z" fill="white"/>
<path d="M59.44 2.50998C59.79 1.26998 66.53 0.229984 67.87 0.129984C83.62 -1.04002 87.27 5.49998 86.16 20.32C85.68 26.71 82.59 29.6 76.42 30.6C67.61 32.03 55.39 30.57 56.99 18.8C58.19 10.02 72.11 11.1 78.52 11.57C79.56 5.54998 72.36 5.78998 68.23 6.19998C65.27 6.49998 62.31 8.16998 59.45 8.06998V2.50998H59.44ZM78.83 17.29C75.69 17.07 65.67 16.01 63.93 19.08C63.18 20.39 63.67 22.85 64.83 23.83C66.77 25.48 76.07 25.46 77.78 23.55C78.84 22.37 78.83 18.87 78.84 17.29H78.83Z" fill="white"/>
<path d="M105.47 0.539991C119.53 -0.770008 125.6 4.77999 124.28 19.03C123.34 29.28 115.45 31.68 106.33 30.95C95.52 30.09 92.73 23.32 93.44 13.3C93.97 5.69999 97.75 1.25999 105.47 0.529991V0.539991ZM108.92 6.28999C103.55 6.28999 101.01 7.78999 100.48 13.36C100.19 16.44 100.27 22.08 103.19 23.91C105.5 25.36 111.98 25.37 114.33 24.03C117.7 22.11 117.61 16.13 117.24 12.72C116.69 7.66999 113.63 6.27999 108.91 6.27999L108.92 6.28999Z" fill="white"/>
<path d="M32.42 1.08001L21.4 15.54L32.11 29.2L32.42 30.32H23.52L17.16 21.26L16.4 20.8L8.74 30.32H0L11.14 15.84L0 1.08001H8.74L16.08 10.6C16.48 10.69 16.62 10.35 16.84 10.13C19.19 7.93001 21.21 3.42001 23.68 1.07001H32.42V1.08001Z" fill="white"/>
<path d="M47.99 1.08002H41V30.32H47.99V1.08002Z" fill="white"/>
<path d="M193.26 1.08002H186.27V30.32H193.26V1.08002Z" fill="white"/>
</g>
<defs>
<clipPath id="clip0_1_77">
<rect width="193.26" height="31.08" fill="white"/>
</clipPath>
</defs>
</svg>
