<svg width="1157" height="189" viewBox="0 0 1157 189" fill="none" xmlns="http://www.w3.org/2000/svg">
<g clip-path="url(#clip0_0_3)">
<path d="M0.04 183.02C18.12 183.34 40.15 183.69 58.19 183.09C71 183.02 88.82 181.81 101.75 181.23C112.9 180.35 124.46 179.4 135.54 178.41C142.83 177.57 157.59 175.84 164.41 175.06C182.9 172.5 203.47 169.16 221.75 165.71C300.85 150.15 378.21 124.24 449.78 86.99C495.45 62.85 539.88 35.08 578 0.0100098C643.89 51.41 719.58 89.38 797.69 118.3C807.59 122.06 819.34 125.9 829.35 129.33C836.91 131.84 844.64 134.03 852.21 136.48C860.87 139.15 871.16 141.87 879.86 144.36C896.19 148.68 914.6 153.11 931.14 156.72C941.73 158.96 953.46 161.19 964.1 163.26L983.05 166.46C986.21 166.99 989.36 167.58 992.53 168.07C1001.08 169.23 1013.07 171 1021.11 172.15C1026.45 172.76 1048.42 175.36 1054.61 176.05C1062.79 176.75 1079.92 178.4 1088.27 179.08C1099.05 179.68 1116.08 181.12 1126.9 181.53C1135.26 181.9 1147.39 182.47 1156 183.01L1156.04 184.01C1143.41 185.21 1129.94 186.6 1117.23 187.32C1109.86 187.65 1094.9 188.25 1088 188.49C1079.21 188.64 1062.78 188.48 1053.83 188.47C1042.56 188.03 1030.86 187.58 1019.66 186.95C1012.43 186.36 997.2 185.11 990.41 184.5C984.65 183.89 967.43 181.71 961.25 180.96C948.79 179.08 934.95 177 922.59 174.52C816.89 154.24 713.86 112.81 628.21 47C615.39 37.15 602.79 26.36 591.15 15.15C586.53 10.54 581.91 5.97001 577.66 1.02001H578.37C569.08 10.09 559.13 18.39 548.96 26.41C426.63 121.12 269.63 171.11 116.4 182.22C101.37 183.53 82.98 184.16 67.93 184.68C57.56 184.77 48.19 184.83 38.81 184.9C26.07 184.87 12.4 184.25 0 184.02L0.04 183.02Z" fill="white"/>
</g>
<defs>
<clipPath id="clip0_0_3">
<rect width="1156.04" height="188.56" fill="white"/>
</clipPath>
</defs>
</svg>
