<?xml version="1.0" encoding="UTF-8"?>
<svg xmlns="http://www.w3.org/2000/svg" version="1.1" viewBox="0 0 500 500">
  <defs>
    <style>
      .cls-1 {
        fill: #e32d26;
      }
    </style>
  </defs>
  <!-- Generator: Adobe Illustrator 28.7.2, SVG Export Plug-In . SVG Version: 1.2.0 Build 154)  -->
  <g>
    <g id="Layer_1">
      <g id="Round_icons">
        <g id="Social_icon">
          <path id="Vector" class="cls-1" d="M250,457.6c-38.3,0-70.9-.6-87-1.5-32.7.7-64.4-11.3-88.4-33.5-22.5-23.3-34.8-54.6-34.1-87-2-34.4-2-137,0-171.4-.7-32.4,11.6-63.7,34.1-87,24-22.2,55.7-34.2,88.4-33.5,16.1-.9,49.4-1.5,87-1.5s71,.6,87,1.5c32.7-.7,64.4,11.3,88.4,33.6,22.6,23.3,34.8,54.6,34.1,87,2,34.4,2,136.9,0,171.4.6,32.4-11.6,63.7-34.1,87-24,22.3-55.7,34.4-88.4,33.5-16.1.8-48.6,1.4-87,1.4ZM250,420.2h37.1c29.4,1.4,58.8-1.5,87.3-8.6,18.3-7.1,32.8-21.4,40.1-39.6,8.1-35.3,11-71.5,8.6-107.6v-29.7c2.4-36.1-.5-72.4-8.6-107.6-7.3-18.2-21.8-32.5-40.1-39.6-28.7-7.1-58.2-9.9-87.8-8.5h-51.7c-7,0-14.6-.2-22.4-.2-29.2-1.4-58.5,1.5-86.8,8.6-18.3,7.1-32.8,21.4-40.1,39.6-8.1,35.4-11,71.7-8.6,107.9v29.3c-2.4,36.1.5,72.4,8.6,107.6,7.3,18.2,21.8,32.5,40.1,39.6,28.7,7.1,58.3,10,87.9,8.6h23.4c4.9.2,9.4.1,13.2.1ZM250,356.5c-58.8-.9-105.8-49.3-104.9-108.1.9-58.8,49.3-105.8,108.1-104.9,58.2.9,104.9,48.3,104.9,106.5-.5,59.2-48.9,106.9-108.1,106.5ZM250,180.6c-38.3.6-68.8,32.1-68.2,70.4.6,38.3,32.1,68.8,70.4,68.2,37.8-.6,68.2-31.5,68.2-69.3-.3-38.5-31.8-69.5-70.4-69.2ZM362.5,164.3c-14,.3-25.5-10.8-25.8-24.8-.3-14,10.8-25.5,24.8-25.8,14-.3,25.5,10.8,25.8,24.8,0,.2,0,.3,0,.5.1,13.8-10.9,25.1-24.7,25.3h0Z"/>
        </g>
      </g>
    </g>
  </g>
</svg>