<?xml version="1.0" encoding="UTF-8"?>
<svg xmlns="http://www.w3.org/2000/svg" version="1.1" viewBox="0 0 500 500">
  <defs>
    <style>
      .cls-1 {
        fill: #e32d26;
      }
    </style>
  </defs>
  <!-- Generator: Adobe Illustrator 28.7.2, SVG Export Plug-In . SVG Version: 1.2.0 Build 154)  -->
  <g>
    <g id="Layer_1">
      <g>
        <path class="cls-1" d="M408.8,401l-126.3-183.5-14.3-20.8-90.4-131.3-7.5-10.9H59.3l27.1,39.4,120.1,174.6,14.3,20.7,96.5,140.3,7.5,10.9h111l-27.1-39.4ZM338,415.2l-100.3-145.7-14.3-20.7L107.1,79.7h50.1l94.1,136.7,14.3,20.7,122.6,178.1h-50.1Z"/>
        <polygon class="cls-1" points="223.5 248.7 237.8 269.5 220.8 289.2 90.9 440.3 58.9 440.3 206.5 268.5 223.5 248.7"/>
        <polygon class="cls-1" points="422.5 54.5 282.5 217.5 265.6 237.2 251.3 216.4 268.2 196.7 363.1 86.3 390.5 54.5 422.5 54.5"/>
      </g>
    </g>
  </g>
</svg>