<?xml version="1.0" encoding="UTF-8"?>
<svg xmlns="http://www.w3.org/2000/svg" version="1.1" viewBox="0 0 500 500">
  <defs>
    <style>
      .cls-1 {
        fill: #e32d26;
      }

      .cls-2 {
        fill: #fff;
      }
    </style>
  </defs>
  <!-- Generator: Adobe Illustrator 28.7.2, SVG Export Plug-In . SVG Version: 1.2.0 Build 154)  -->
  <g>
    <g id="Layer_1">
      <g id="WhatsApp">
        <g id="Group">
          <path id="Vector" class="cls-2" d="M46.4,456.7h0l29.6-107.7c-18.3-31.6-27.9-67.5-27.9-104,.7-115.5,94.9-208.6,210.4-207.9,54.9.3,107.4,22.2,146.3,60.9,39.3,38.8,61.3,91.8,61.1,147-.4,115.1-93.9,208.1-209,207.9h-.1c-34.9,0-69.2-8.7-99.9-25.3l-110.6,29h0ZM162.3,390.1h0l6.3,3.8c26.8,15.8,57.3,24.1,88.4,24.2h.1c95.6.1,173.3-77.2,173.6-172.8-.1-95.6-77.8-173.1-173.4-172.9h-.4c-95.5,0-173.1,77.2-173.5,172.7,0,32.5,9.2,64.4,26.6,91.9l4.1,6.6-17.5,63.7,65.7-17.1h0Z"/>
          <path id="Vector-3" class="cls-1" d="M46.4,456.7h0l29.6-107.7c-18.3-31.6-27.9-67.5-27.9-104,.7-115.5,94.9-208.6,210.4-207.9,54.9.3,107.4,22.2,146.3,60.9,39.3,38.8,61.3,91.8,61.1,147-.4,115.1-93.9,208.1-209,207.9h-.1c-34.9,0-69.2-8.7-99.9-25.3l-110.6,29h0ZM162.3,390.1h0l6.3,3.8c26.8,15.8,57.3,24.1,88.4,24.2h.1c95.6.1,173.3-77.2,173.6-172.8-.1-95.6-77.8-173.1-173.4-172.9h-.4c-95.5,0-173.1,77.2-173.5,172.7,0,32.5,9.2,64.4,26.6,91.9l4.1,6.6-17.5,63.7,65.7-17.1h0Z"/>
          <path id="Vector-4" class="cls-1" d="M204.9,158.1c-3.9-8.6-8-8.9-11.7-9-3-.1-6.5-.1-10-.1-5.3.1-10.4,2.5-13.9,6.5-11.9,11.2-18.6,27-18.2,43.4,1.7,19.6,9.1,38.3,21.3,53.7,21.7,34,52.6,61.3,89.2,78.5,44.1,17.3,53.1,13.8,62.6,13,14.7-2.9,27.5-11.9,35.3-24.7,3.4-7.8,4.4-16.4,3-24.7-1.3-2.2-4.8-3.5-10-6.1s-30.9-15.1-35.7-16.9-8.3-2.6-11.7,2.6c-3.4,5.2-13.5,16.9-16.5,20.3s-6.1,3.9-11.3,1.3c-15.4-6.1-29.6-14.8-42-25.8-11.4-10.5-21.2-22.6-29.1-36-3-5.2-.3-8,2.3-10.6,2.3-2.3,5.2-6.1,7.8-9.1,2.2-2.6,3.9-5.5,5.2-8.6,1.4-2.9,1.3-6.3-.4-9.1-1.3-2.5-11.5-28.2-16.1-38.5Z"/>
        </g>
      </g>
    </g>
  </g>
</svg>